<svg xmlns="http://www.w3.org/2000/svg" viewBox="0 0 1200 675" role="img" aria-label="Svensk datasuveränitet – serverrack med svensk flagga">
  <defs>
    
    <pattern id="grid" x="0" y="0" width="40" height="40" patternUnits="userSpaceOnUse">
      <circle cx="2" cy="2" r="1.2" fill="#ffffff" fill-opacity="0.05"/>
    </pattern>
    <linearGradient id="rackBody" x1="0" y1="0" x2="0" y2="1">
      <stop offset="0" stop-color="#23262e"/>
      <stop offset="0.5" stop-color="#181a20"/>
      <stop offset="1" stop-color="#0d0f14"/>
    </linearGradient>
    <linearGradient id="rackEdge" x1="0" y1="0" x2="1" y2="0">
      <stop offset="0" stop-color="#3a3d46"/>
      <stop offset="0.5" stop-color="#1c1e25"/>
      <stop offset="1" stop-color="#3a3d46"/>
    </linearGradient>
    <linearGradient id="serverUnit" x1="0" y1="0" x2="0" y2="1">
      <stop offset="0" stop-color="#2a2d36"/>
      <stop offset="0.45" stop-color="#15171c"/>
      <stop offset="1" stop-color="#0a0c10"/>
    </linearGradient>
    <linearGradient id="vent" x1="0" y1="0" x2="0" y2="1">
      <stop offset="0" stop-color="#0a0a0a"/>
      <stop offset="1" stop-color="#1a1a1a"/>
    </linearGradient>
    <radialGradient id="ledGreen">
      <stop offset="0" stop-color="#9dffc7"/>
      <stop offset="0.5" stop-color="#22d77a"/>
      <stop offset="1" stop-color="#0a6a3d"/>
    </radialGradient>
    <radialGradient id="ledBlue">
      <stop offset="0" stop-color="#a8c8ff"/>
      <stop offset="0.5" stop-color="#3e8eff"/>
      <stop offset="1" stop-color="#0a3a7a"/>
    </radialGradient>
    <filter id="rackShadow" x="-10%" y="-10%" width="120%" height="120%">
      <feDropShadow dx="0" dy="22" stdDeviation="22" flood-color="#000000" flood-opacity="0.55"/>
    </filter>
    <filter id="stickerShadow" x="-30%" y="-30%" width="160%" height="160%">
      <feDropShadow dx="1" dy="2" stdDeviation="2" flood-color="#000000" flood-opacity="0.45"/>
    </filter>
    <filter id="ledGlow" x="-200%" y="-200%" width="500%" height="500%">
      <feGaussianBlur stdDeviation="2.5"/>
    </filter>
      <symbol id="sweden" viewBox="0 0 290 660" overflow="visible">
      <path d="m 145.3125,527.5 0.5,3.75 -0.5,2.75 -1.4375,-1.1875 -2.125,-0.4375 -1.625,2.4375 2.125,3.0625 1.8125,1.25 0.0625,2.25 -1.4375,0.875 -0.6875,1.8125 0.875,1.1875 1.625,-0.625 0,1.5 -0.875,0.8125 -2.25,0.25 2.25,2.6875 0.5625,1.6875 -0.8125,2.75 -0.9375,2.5 -1.75,0.0625 0.3125,2.5 -1.9375,1.5 0.4375,2.25 -0.875,1.8125 0.9375,3 2.125,1 -2.25,3.375 -0.875,2.5 0.125,2.0625 -0.5625,2.5 -0.75,4.1875 0.9375,-0.5625 0.6875,1.1875 -0.8125,0.9375 -1.0625,-0.9375 -1.0625,4.6875 -1.875,0.4375 -1.125,2.25 -0.3125,1.375 0.0625,2.1875 -0.9375,0.375 -0.625,2.125 -1.0625,1.125 -0.9375,3.125 -0.8125,3.6875 -1.0625,4.0625 -1.375,2.875 -1.125,0.75 -1.5625,3.4375 -1.6875,-1.5 -2,1.1875 -1.1875,-0.4375 1.625,-1.5625 0.4375,-1.375 -1.3125,-1.125 -2.5625,0.4375 -0.875,-0.625 -1.6875,0.625 -1,1 -1.1875,-1.3125 -0.625,1.1875 -1.8125,1 -0.5625,-2 -1.0625,0.375 -2.3125,0.375 -1.75,-0.0625 -0.9375,-1.125 -1,1.125 -1.8125,0.0625 -2.625,0.125 -1.9375,0.25 L 94.375,613.25 93,612.9375 93.0625,614.875 94,617 l 1.5625,1.6875 -1.5,1.6875 -1.625,-0.125 L 91,619.5 l -1.5625,-1.3125 -2.0625,0.6875 -1,1.875 -2,1.1875 L 83.5,624 l -1.125,0.5625 -1.9375,3.5 -0.3125,3.1875 0.375,3.0625 1.5625,1.0625 0.4375,2.6875 1.375,1.25 0.3125,2.0625 -0.875,1.75 -1.9375,2.0625 -1.375,2.5 -0.5,0.875 -2.3125,-0.375 -1.125,0.125 -2.6875,-2.0625 -1.0625,-0.4375 -1.75,0.375 -3,-0.25 -0.9375,0.5625 -1.375,0 -1.5,1.8125 -2.875,-0.125 L 60,648.5 l -0.875,0.6875 -1.0625,0.0625 -1.1875,0.75 -0.4375,-0.5 -0.875,0.125 -0.625,-0.25 -1.3125,-0.75 -2.4375,-0.625 -0.9375,0.1875 -0.625,0 -1.25,-0.875 -0.9375,-0.6875 -0.8125,0.1875 -0.375,0.1875 -0.125,0.375 -0.4375,0 -0.375,-0.4375 -0.5,-0.125 -1.5625,0.5625 1.375,-2.8125 0.125,0.3125 0.25,1 0.75,0.3125 0.625,0.125 0.3125,-0.5625 0.375,-1.0625 0.125,-1.0625 -0.25,-0.8125 L 46.625,642 l -0.5,-1.25 -0.125,-1.1875 0,-0.875 0.5,-0.5 1.375,-0.8125 0.8125,-0.5625 1.0625,-0.25 0.1875,-0.5625 0,-0.5 0,-0.3125 0.375,-0.9375 0,-0.375 -0.3125,-0.9375 -0.4375,-0.3125 -0.9375,-0.75 -0.625,0 -0.4375,-0.1875 0.3125,-0.5 -0.3125,-0.6875 -0.75,0.375 -0.375,-0.6875 0.375,-0.5 0.3125,-0.25 -0.125,-2.375 -0.5,-1.75 -1.8125,-0.4375 -1.375,-4.25 -0.4375,-2.3125 -1,-1.9375 -1.25,-1.5625 -1,-1.625 -0.875,-1 -0.25,-0.8125 -0.4375,-2.875 -0.3125,-1.4375 -0.8125,-1.5 -1.0625,-0.875 1.1875,-0.125 2.3125,1.5625 2,1.1875 0.625,1 0.75,0 0.875,0.3125 0.625,0.1875 1,-0.6875 0.5625,-1.375 -0.6875,-1.5 -1.25,-1.3125 -0.5625,-1.6875 -1.25,-1.125 -1.375,-0.4375 -0.125,-1.8125 1.3125,-1.0625 1.25,-0.5 1.6875,0.75 1.25,0.9375 1.5,-0.625 0.875,-1.1875 0.5,-1.375 0.1875,-2.25 -0.3125,-2.0625 -0.6875,-2.375 -1.5,-0.875 -1.4375,0.875 -1.4375,-0.0625 -1,-2.1875 -0.8125,-1.9375 -0.8125,-2.5 0.125,-2.25 L 39.8125,578.875 37.875,577.3125 36,576.5625 34.75,575 l 0.4375,-1.4375 0,-1.25 -0.6875,-1.625 -1.125,-0.8125 -0.75,-1.875 -0.1875,-2.625 -1.1875,-2.0625 -1.5,-1.9375 0.125,-1.8125 1.25,-0.625 -0.125,-1.25 -0.1875,-1.5625 -0.375,-0.4375 -0.875,0.1875 -0.3125,-0.4375 0.6875,-1.6875 0.0625,-2.1875 -0.1875,-1 -0.5,-0.3125 -0.5,0.5 -0.375,1.125 -0.625,2.25 -0.3125,0.6875 -0.4375,0.25 -0.625,-0.3125 -0.375,-0.8125 -0.8125,-2.25 -0.125,-0.75 0.25,-0.875 L 26.0625,548.25 26,547 l 0,-1.5625 0.125,-1.0625 0.125,-2.0625 -0.1875,-0.4375 -0.4375,0.75 -0.3125,-0.0625 -0.6875,-2.0625 0,-0.375 0.1875,-0.375 1.8125,-1 -0.5,0 L 25.375,539 25,538.75 23.875,539 23.5,538.25 l -0.375,-0.1875 -0.375,0.125 -0.125,0.625 -0.3125,0.125 -0.3125,0 -0.4375,-0.125 -0.375,-0.6875 -0.125,-0.3125 0,-0.4375 0.5,-0.6875 0.875,-0.375 0.875,-0.25 0.3125,-1.5 -0.5,0 -0.75,0.125 -0.25,-0.1875 -0.125,-1 -0.1875,-0.375 -0.5,-0.5 -0.3125,-0.5 0.1875,-0.625 0.5,-0.625 0.3125,-0.625 0.25,-0.875 0.875,-1.5625 -0.3125,-0.5 0,-0.625 0.1875,-0.5 1.25,-1.3125 0.375,-1.125 0.0625,-1 -0.125,-1.0625 -0.0625,-1 0.4375,-0.5625 0.5,-0.6875 0.4375,-0.75 L 26,517.5 l -0.125,-1.0625 0.5,-0.1875 0.625,-0.625 0.0625,-0.75 -0.75,0 0,-1.0625 -0.4375,-1 -0.75,-1.25 0.1875,-0.5625 1,-1.125 -1.5,0 -1.0625,-0.375 -0.9375,0.0625 0.4375,0.5625 -0.25,0.5 -0.9375,-0.0625 -0.625,1.0625 -0.625,0.6875 -0.625,0.4375 -0.75,0.125 -0.4375,0.875 -0.625,0.75 -0.875,0.375 -1.1875,0.25 -1.0625,0 -0.1875,-0.25 0.6875,-1.125 0.375,-0.5625 0.75,-0.125 0.625,-0.4375 0.625,-0.6875 0.375,-0.5625 0,-1.25 -0.5625,0.4375 -0.625,0.875 -0.5625,0.5 -1,0.125 -0.0625,-0.3125 0.4375,-0.4375 0.1875,-0.8125 -0.5625,-0.125 -0.4375,-0.3125 0.25,-0.8125 0.25,-1 -0.75,0.1875 0.0625,-1.4375 -0.75,0.6875 -0.5625,-0.25 -0.25,-0.4375 -0.375,-0.0625 -0.1875,0.5 -0.875,0.5 -0.8125,0 -0.125,-0.4375 0.6875,-0.8125 -0.125,-0.5625 -0.0625,-0.625 0,-0.8125 0.1875,-0.625 0.5,-0.125 0.125,0.6875 0.3125,0.0625 0.5,-0.3125 0.1875,-0.5625 -0.125,-0.625 L 13.3125,502.5 12.25,498 l 1.0625,-1.4375 -1.0625,-4.125 -1.6875,-3.125 0.375,-4.0625 -0.125,-1.0625 L 10,481.75 l 0.0625,-0.6875 0.125,-0.1875 0.5625,0.25 0.3125,-0.125 0,-0.4375 -0.625,-0.9375 L 10.25,479.0625 10.3125,477 12.5,473.5 l 1,-0.1875 0.625,-0.3125 0.9375,-0.5625 1,0.3125 2,4.5 -0.5,4.375 0.125,1.125 1.1875,0.875 3.5625,-1.5 0.75,-1.9375 0.0625,-1.5625 0.9375,-2.3125 1.8125,-2.6875 -0.4375,-0.875 0.3125,-3.875 1.5625,-1.1875 0.1875,-5 -0.75,-2 -0.5,-4.875 -0.875,-4.625 1.25,-2.3125 2.6875,-0.5 0.75,-1.625 1.4375,-1.5625 -0.0625,-2.8125 -1.4375,-2.9375 2.6875,-2.4375 1.9375,0.8125 2.4375,-0.3125 1.5625,-1.6875 3,-1.3125 0.8125,-2.0625 1.625,-1.1875 1.5625,-4.25 0.9375,-2.4375 -0.625,-6.5625 2.75,-3.9375 0.0625,-5.0625 -1.9375,-3.8125 0.1875,-2.25 -2.5,-4.5 -1.0625,-4.8125 0.25,-2.0625 -2.125,-6 5.75,-1.25 2.9375,0.4375 1.375,-0.4375 0.6875,-4.4375 1.9375,-1.4375 1.1875,-2.75 1,-5.25 -5.75,-10.1875 -3.25,0.125 -5.6875,-7.625 4.5,-24.6875 -4.5,-16.75 2.0625,-6.125 -0.75,-7.125 L 46,293.9375 41.8125,281 l 5.4375,-9.125 -1.0625,-5.3125 3.125,-3.3125 0.625,-2.5625 1.4375,-1.6875 6.5625,-9.8125 4.5,-3.4375 6.375,-1.875 2.0625,0.5 8.5625,2.0625 5.125,1.8125 4.3125,-8.5625 -0.375,-9.5625 -0.0625,-2.875 -0.875,-1.125 -3.25,-1.125 -4.9375,-3.6875 11.5,-21.5625 2.375,-3.125 0.9375,-6 2.5625,-2.5 L 96.9375,181.5 98,170.3125 99.875,164.75 98.25,149.9375 l 8.375,-0.375 1.0625,-0.125 8.375,-6.4375 -0.3125,-2.875 -1.375,-6.0625 4.5625,-5.25 6.6875,-13 1.9375,-2.375 4.875,-4.25 0.875,-6.9375 -0.6875,-2.9375 -5,-8.75 1.5,-4 L 133,85.8125 134.9375,82 138,68.5625 l 1,-0.9375 7.375,-5.5625 1.625,-3.125 6.375,3.25 4.625,3.4375 0.4375,-1.5 3.5,-9.0625 -1.6875,-9.8125 0.125,-6.125 4.8125,-2.3125 3.5625,3.125 6.4375,-1.0625 16.3125,5.625 5.1875,-6.5625 -5.125,-2.4375 2.0625,-2 2.3125,-3.75 1.375,-6.0625 -0.75,-5.0625 -3.8125,-5.25 7.875,-1.4375 3.5625,0.5625 1.5,1.8125 1,0.4375 -0.3125,0.875 -0.8125,1.0625 1.375,1.625 1.375,-0.25 4.0625,3.5 1.25,2.3125 0.9375,-0.5625 1.0625,0.5 0.375,2.9375 1.4375,0.6875 1.9375,0.5625 1.9375,1.4375 -0.0625,1.5 2.25,-0.0625 3,1.6875 0.0625,1.4375 0.4375,1.1875 1.75,0.5 1.8125,0 1.375,-0.375 0.8125,1.375 0.75,-0.875 3.375,1.5 0.5625,-0.5 0.6875,0.9375 1.875,1.125 0.4375,-0.8125 0.9375,0.625 0.0625,1.25 1.875,0.875 0.5625,0.0625 1.9375,0.9375 0.3125,1.625 1.5,1.25 0.1875,1.625 -0.0625,1.8125 0.75,1.3125 1.625,-0.9375 1.1875,1.25 1.4375,3.5 1.25,0 0.375,1.25 1.0625,0 0.5625,1.75 1.5,0.1875 0.5,2.625 -1.9375,1.0625 -0.4375,3.125 0.5,1.75 0.1875,4.8125 1.625,2.5625 -0.3125,2.9375 -0.875,0 0.625,1.25 -1.125,2.375 1.8125,1.5 0.5625,-0.8125 2.6875,1.125 0.625,-0.8125 1.25,1.25 -0.4375,1.625 0.1875,1.9375 0.875,0.3125 -0.625,2.5 -2.1875,0.875 -0.3125,2.0625 0.625,1.125 -0.375,1.5625 2.25,3.0625 0.375,2.3125 1.875,2.0625 1,0.1875 0.3125,1.375 1.125,0.5625 0.25,1.875 2,2.3125 0.8125,1.625 -0.125,1.75 L 270.6875,110 270.5,111.3125 271,115 l -0.25,1.625 0.375,3.1875 -1.125,1.4375 0.1875,1.5 -1.4375,0.5625 0,1.5 -1.25,0.875 0,1.25 1.125,1.625 -0.625,4.125 2.5,5.6875 2.625,0.8125 1.4375,0.0625 0,1.5625 0.625,0.6875 0,1.1875 1.75,2.75 0.8125,2.75 2.9375,6.9375 -5.8125,1.25 -1.75,-1.3125 -1.3125,-0.0625 -0.25,1.25 -1.3125,0.5625 -2.1875,-1 -0.8125,2.1875 -2.9375,-0.9375 -1.25,-0.5 -0.75,1.375 -0.8125,3.6875 -2.0625,-1.75 -3.625,-1.375 -1.375,-3.3125 -1.625,-0.9375 -0.5625,0.6875 0.75,3.875 2.0625,2.125 0.125,1.5625 -1.4375,-0.5 -1.875,-2.25 -2.1875,0.1875 -0.0625,-1.6875 -1.625,-2.3125 -1.875,0.9375 -0.4375,3.0625 0.25,3.3125 0.5625,2.6875 0.5625,2.3125 1.1875,2 -0.9375,0.5 -2.4375,-0.6875 -1.0625,0.5 0.125,1.9375 -2.125,0.125 -3.25,0.1875 2.625,2.6875 -1.1875,2.25 -2.125,0.9375 -3.125,-0.1875 -2.875,1.1875 -0.8125,1.375 4.5625,2.875 -0.25,1.375 -1.6875,1.3125 1.0625,4.4375 -1.1875,3.1875 -2.375,5.4375 -2.3125,1 0.8125,2.375 -2.375,3.375 -2.3125,-0.375 1.25,2.5625 3.6875,0.25 0.125,3.875 -0.9375,1.3125 1.4375,2.375 2.3125,0.3125 1.875,1.9375 1.0625,3.75 1.625,-0.25 0.125,1.625 -2.25,4.3125 -4,3.375 -2.625,3.625 -2.25,3.0625 -0.5,4.5 -1.5,5.1875 -1.375,3.6875 -1.375,2.75 -3,0.5625 -1.625,2.1875 -0.375,3.375 -1.8125,0.0625 -0.4375,1.4375 -3.4375,0.25 -2.1875,-0.3125 -0.25,2.25 -1.75,-0.0625 -3.125,4.0625 -0.5625,1.0625 0.75,2.4375 -1.625,1.25 -2,-3.5625 -2.5,-2.25 -0.9375,1.375 1.4375,2.875 -1.8125,0.875 -2.25,-0.5 -0.75,6.5 -2.3125,0.625 -0.125,3.875 -1.5625,2.0625 -1.8125,-1.1875 -4.375,3.0625 -2.375,-0.0625 -2.0625,4.3125 -0.25,2.1875 -1.75,0.125 -0.4375,1.375 3.5,0.5 -1,3.25 -2.125,3.6875 -2.4375,-1.75 -1.0625,0.9375 1.3125,1.25 -2.9375,3.125 -2.6875,-0.5625 0.3125,1.625 2.875,-0.25 -2.1875,3.5625 -1.5,1.3125 1.9375,1.625 -3.25,2.625 -1.1875,3.5625 -2.125,-1.1875 -1.5625,1.4375 0.5,2.25 -3.1875,-0.6875 -1.625,-3.3125 -1.875,0.75 0.0625,1.25 2.25,0.8125 0.5,3.6875 -1.6875,0.5 -0.375,1.75 1.75,2.8125 3.3125,0.9375 -0.625,2.0625 -1.875,0.5 -0.9375,2.3125 -0.75,6.3125 -1.625,2.8125 -0.8125,4.125 1.5625,1.6875 -0.0625,2.75 0.75,1.25 2.0625,0.875 -0.6875,3.9375 -1.375,-0.5 -0.8125,-1.6875 -2.3125,-0.9375 -0.9375,2.25 -1.0625,2.5625 -1.3125,2.4375 1.5,3.375 -1.5625,2.75 0.375,2.375 2.75,3.1875 -0.75,2.9375 -1.5625,1.5625 0.6875,6.6875 -0.25,1.1875 1.75,1.375 -1.3125,2.3125 2.5625,4.5625 -0.6875,2.375 2.5,2.4375 -2.875,2.75 3.125,1.6875 5.8125,0 0,2.5 1.25,3.25 1.75,-0.375 1.25,-2.1875 2.6875,-1.25 1.875,1.25 0.3125,3 2.5,3.25 4,3.4375 2.25,0.625 0.8125,-1 -1,-4 0.0625,-2 0.8125,-0.4375 0.9375,4.0625 1.6875,2.75 1.625,0.5 -0.3125,1.5 -1.9375,0.1875 1.9375,1.5625 0.9375,1.8125 -0.625,1.25 -1.4375,0 0.1875,2.5625 2.3125,0.5 1.5,0.4375 0.6875,-1.5 0.1875,-2.375 1.9375,1.8125 -0.3125,3 0.9375,0.6875 1.125,4.125 1.75,2.9375 2.25,1.625 1.5,1.25 -0.875,2.5 -1.6875,0 0.125,2 2.3125,0.6875 0.25,2.0625 -1.3125,0.9375 -3.6875,-0.25 -2.6875,1.5 -0.3125,2.5 -1.25,2.1875 -0.875,0.5625 -0.5,0.3125 -0.6875,0.5 -0.75,0.5625 -0.1875,0.3125 -0.4375,0.0625 -0.9375,1.0625 -0.1875,0.125 -0.3125,0.5625 -0.375,0.375 -0.5,0.125 -0.125,0.1875 0,0.25 -0.4375,0.8125 -0.3125,0.0625 -0.3125,-0.0625 -0.375,0.0625 -0.125,-0.3125 -0.3125,0 -0.3125,0.125 -0.1875,-0.125 -0.1875,-0.25 -0.375,0.0625 -0.1875,0.25 0.3125,0.1875 0.3125,0.0625 0.125,0.25 -0.125,0.375 -0.25,0.25 -0.5,0.125 -0.375,-0.1875 L 179.5,460 l -0.125,0.25 0.125,0.1875 0.25,0.0625 0.4375,-0.0625 0.1875,0.25 0.375,0.5 -0.125,0.1875 -0.25,0.1875 0.0625,0.125 0.5625,0 0.1875,0.1875 -0.1875,0.25 -0.5625,0.1875 -1.3125,0.125 -0.375,-0.1875 -0.375,-0.0625 -0.5,-0.125 0,-0.5 0.0625,-0.5625 0.1875,-0.3125 0.4375,0.1875 0.1875,-0.125 0,-0.4375 0,-0.25 -0.125,-0.125 -0.5625,0.3125 -0.3125,0 -0.0625,-0.25 -0.125,-0.4375 -0.25,0.125 -0.75,0.5625 0.125,0.25 -0.3125,0.3125 -0.125,0.25 0,0.6875 -0.125,0.5625 -0.625,0.6875 0.875,1.0625 0.6875,0.5 0.3125,0.5 0,0.3125 -0.3125,0.1875 -0.375,-0.0625 -0.4375,-0.4375 -0.4375,0.0625 0.125,0.25 -0.25,0.125 0,0.0625 0.3125,0.1875 0.5625,0.0625 0.4375,0.0625 0.5,-0.125 0.875,-0.4375 0.4375,-0.25 0.1875,0 0,0.5625 0.0625,0.75 0.1875,0.25 0.875,0 0.5,-0.0625 0.375,0.125 0.1875,0.4375 0.125,0.3125 0.5625,0.125 0.375,0.125 0.0625,0.3125 -0.25,0.125 -0.4375,-0.125 -0.875,-0.1875 -0.375,0 -0.125,0.1875 0.0625,0.125 0.1875,0.1875 0.5625,0.0625 1.25,0.875 0.4375,0.5 0.375,0.125 0.375,0.0625 0.4375,0.8125 -0.1875,0.25 -0.5,0.3125 -0.1875,0.5625 0.3125,0.3125 0.75,0.3125 0.375,-0.125 0.375,-0.125 0.1875,0.125 -0.5,1.1875 -0.3125,0.1875 -0.3125,0.1875 -0.25,0 -0.0625,-0.1875 -0.25,-0.0625 -0.5625,0.625 -0.1875,0 -0.375,-0.0625 -0.3125,0.1875 -0.6875,0.3125 -0.375,0.6875 1.125,-0.125 0.0625,0.3125 -0.375,0.375 -1.1875,0.4375 -0.5625,0.3125 -0.3125,0.375 -0.3125,0.125 -0.0625,-0.25 0,-0.25 0.375,-0.375 0.25,-0.125 0.0625,-0.1875 -0.1875,-0.1875 0.125,-0.3125 0.25,-0.1875 0.25,0 0.25,-0.25 -0.0625,-0.1875 -0.25,-0.1875 -0.5,0.0625 L 179.5,475 l -0.1875,0.375 0.1875,0.1875 -0.125,0.25 -0.375,0.3125 -1.125,0.4375 -0.125,0.25 -0.625,0.1875 -0.1875,0.3125 -0.125,0.4375 -0.3125,0.125 -0.5625,0.0625 -0.375,0.1875 -0.1875,0.4375 0,0.375 -0.1875,0.25 -0.25,-0.125 -0.0625,-0.375 -0.3125,-0.0625 -0.0625,0.25 0.25,1.1875 0.0625,0.375 -0.125,0.1875 -0.1875,0.0625 -0.125,-0.4375 -0.1875,-0.25 -0.125,0.5 -0.0625,0.4375 -0.375,1.125 0.25,1.5 -0.25,1.0625 -0.5625,0.375 -0.5,0.625 -0.375,1.1875 -0.375,0.375 -0.5625,2.25 -1.5,0.5 0,-0.5 0.4375,-0.5625 0.3125,-0.5 0.0625,-0.75 -0.5625,-1.1875 -0.5625,-1.125 -0.5625,-0.5625 -0.1875,-0.4375 0.125,-0.3125 0.0625,-1.75 -0.3125,-0.375 0.0625,-0.375 0.1875,-0.5 -0.25,-1.375 -0.3125,-0.6875 0,-0.5 0.3125,-0.5625 0.25,-0.375 -0.125,-0.5 0.1875,-0.5625 0.3125,-0.1875 -0.1875,-0.625 0.0625,-0.4375 -0.875,0.5625 -0.125,0.3125 0.1875,0.875 -0.0625,0.5625 -0.6875,0.25 -0.375,-0.0625 -0.0625,-0.75 0,-0.625 0.25,-0.8125 -0.25,-1.3125 -0.1875,-0.25 -0.125,-0.5 -0.125,-0.375 -0.1875,-0.1875 -0.25,0.25 0.0625,0.375 0.4375,0.75 0.125,0.6875 0,0.5 -0.125,0.1875 -0.25,0.0625 -0.1875,-0.0625 -0.1875,0.3125 0.125,0.1875 -0.625,0.5 -0.1875,0.1875 0,0.375 0.3125,0.25 0.0625,0.25 -0.4375,0.75 0.0625,1.875 0.1875,0.625 0.25,-0.1875 0.375,-0.875 0.0625,-0.625 0.125,-0.8125 0.3125,-0.25 0.375,0.25 0.0625,0.5625 0.1875,2.25 0.0625,1.4375 -0.1875,0.875 -0.25,0.25 -0.4375,-0.1875 -0.5,-0.125 -0.375,1.8125 -1.1875,1.25 0.5625,1.25 -0.75,0.5625 -1.625,-1.3125 -0.375,2.9375 0.6875,0.75 -1.25,0.1875 -0.4375,-0.125 -0.6875,-0.125 -0.3125,2.0625 -1.5625,-0.3125 -1,1.1875 -2.4375,-0.5625 -1.25,0.0625 -1.1875,-1.25 -1.625,0.625 1.75,1.5625 1.1875,1.125 -1,1.6875 -1.5,-1 -1.375,-0.1875 -1.0625,0.5625 2,0.5625 0.0625,1 -2.625,0.9375 -2,-0.1875 -1.6875,-0.1875 -1.625,-0.125 -2.5,-0.4375 -3.25,-0.8125 -1.6875,0 -2.4375,-0.375 -0.9375,0.875 -0.0625,1.5625 0.8125,0.375 1.9375,-0.8125 1.3125,1.625 0.5,-2.125 3.625,0.25 3.4375,1.5625 2.8125,2.1875 1.875,1.875 -1.75,2.875 -2.625,1 -2.625,-0.5 -1.1875,-0.125 0.8125,1.1875 2.25,0.6875 0.625,1.5625 2.3125,0.1875 1.875,1.4375 -0.875,2.1875 -4.0625,0.875 2.125,1.5 1.3125,2 -1.1875,3.0625 -2.25,-1 0.375,1.4375 2,2 -1.5625,1 1,2.125 z M 146,136.625 l 4.375,2.125 2.0625,2.5 2.3125,2.3125 2.0625,2.3125 3,1.5 1.125,2.75 1.8125,1.75 1.6875,-0.8125 1.125,1.3125 -0.6875,1.0625 -2.75,0.5625 0.9375,2.9375 -0.8125,2.5 5,6.125 2.4375,-0.0625 1.5,0.9375 -0.3125,2 1,1.1875 2,1.5 -0.125,1.25 -4.4375,-1.4375 -1.1875,-0.75 -1.75,0.5625 -2,-5.8125 -3,-4.3125 -0.9375,2.625 -1.5625,0.0625 -0.4375,-2.875 0.6875,-1.6875 -0.1875,-1.625 -2.125,-2.9375 2.25,-1.125 1.625,-0.6875 -2.1875,-2.125 -2.375,-2.625 -3,-1.3125 -0.25,-2.125 -2.5,-3.3125 -4.875,-2.9375 0.5,-1.3125 z M 84.5625,280.3125 88,281.375 l 2.8125,1.1875 2.125,1.875 1.4375,-0.4375 2.3125,1.4375 -2.5,-0.3125 -0.3125,1.25 1.375,1.1875 1.0625,0.5 -1.25,0.625 L 93.5,289.25 93.75,292 94.3125,295.3125 95,300.25 94,303.875 92.6875,303.0625 91.5,299.5 l 1.375,-0.3125 0.0625,-3.25 -1.0625,-3.625 -0.4375,-2.25 -2,-1.625 -2.5,-0.9375 -1.625,-1.5625 2.125,-0.0625 -2.875,-5.5625 z M 95,388.5625 l 1.875,2.75 1.3125,0 3.625,3.6875 1.6875,-1.0625 1.25,-1.125 1.875,1.3125 -1.4375,1.625 -1.75,0.6875 -0.375,3.5625 -1.3125,-3.3125 -3.9375,1.9375 -1.375,-2.25 -2.3125,-3.0625 1.75,0.0625 1.0625,-0.5625 -1.125,-1.1875 -1.6875,-0.1875 -0.25,-1.75 1.125,-1.125 z m 100.125,60.8125 -1.375,0.8125 -1.0625,1.875 -1.1875,1.0625 0.4375,0.375 1.9375,-1.5 1.125,0.1875 0.125,-1.1875 1.3125,-0.125 0,-0.9375 -1.3125,-0.5625 z m -35.5625,2.875 0.125,0.8125 0.25,0.625 0.6875,0.9375 0.75,1 0.8125,0.5625 0.4375,-0.0625 0.3125,-0.5 0.3125,-0.6875 0.3125,-0.125 0.0625,0.3125 0.0625,0.3125 -0.25,0.75 -0.3125,0.25 -0.375,0.3125 -0.0625,0.25 0.125,0.3125 0.875,1 0.1875,-0.0625 -0.125,-0.3125 0.125,-0.3125 0.3125,-0.0625 0.1875,0.25 0,0.9375 0.125,0.375 0.375,0 0.125,-0.3125 -0.1875,-0.3125 -0.0625,-0.25 0.3125,-0.4375 0.5,0.0625 0.5,0.375 0.4375,0.25 0.0625,0.4375 0.25,0.3125 0.0625,0.75 0.375,0.1875 0.3125,0.0625 0,0.25 0.25,0.0625 0.25,-0.375 0,-0.9375 0.1875,-0.8125 0.25,-0.0625 0.25,0.6875 0.375,-0.25 0.25,0.25 -0.125,0.3125 -0.0625,0.125 -0.0625,0.125 -0.4375,1.5 -0.0625,0.5625 0.125,0.375 0.25,0.25 0.25,0.375 0.8125,0.875 0.625,0.625 0.9375,0.5 0.1875,0.4375 0.25,0.1875 0.4375,0.125 0.4375,0.4375 0.25,-0.0625 0.375,-0.125 0.125,-0.5 0.0625,-0.5 0.0625,-0.1875 0.125,0.0625 0.4375,0.5 0.4375,0.1875 0.375,0 0.5,-0.125 -0.0625,0.375 -0.0625,0.0625 -0.5,0.125 -0.5625,0.1875 -0.5,0 -0.1875,0.1875 -0.5625,0.125 -0.5,0.25 -0.4375,0.1875 -0.375,0.3125 -0.5625,0.3125 -0.125,0.5 0.1875,0.25 0,1.3125 -0.1875,0.375 -0.1875,-0.375 -0.1875,-0.5 -0.4375,-0.25 -0.875,0 -0.5625,0.125 -0.5,-0.1875 -0.5,0.4375 -0.5,-0.5 -0.25,-0.5 -0.5625,-0.3125 -0.6875,-0.1875 0,0.3125 -0.5,0.0625 -0.25,-0.1875 -0.4375,0.1875 -0.125,0.4375 0.125,0.25 0.1875,0.1875 0.0625,0.3125 0.1875,1 0.3125,0.875 -0.0625,0.3125 -0.375,-0.0625 -0.1875,-0.375 -0.4375,-1 -0.3125,-0.9375 -0.25,-0.375 -0.5625,0 -1.875,-1 -0.6875,-0.8125 -0.3125,0 -0.5625,-0.4375 -0.25,-0.0625 -0.1875,-0.3125 -0.375,0.125 0.0625,0.375 0.25,0.25 -0.0625,1.1875 0.125,0.3125 0.8125,1.3125 0.125,0.375 -0.8125,-0.375 -0.5625,-0.25 -0.6875,0 -0.6875,0.25 -0.4375,-0.75 -0.6875,-1.6875 1.25,-0.9375 -0.25,-1.4375 -0.6875,-0.1875 1.1875,-1.5625 L 157,460.5 l -3.1875,-0.75 -0.625,1 0.8125,2.8125 -1.75,0.125 -0.9375,-3 0.6875,-1.625 -1.375,-1 -1.0625,0.5 -0.375,1.625 L 146.5,459 l -1.25,0.5625 -1.9375,0.1875 -2.3125,0.75 -2.125,-0.4375 -2.3125,0.5 -4.4375,0.3125 -3.375,0.3125 -0.6875,-2 2.75,0.0625 1.5625,-0.9375 2,0.9375 2.8125,-0.6875 0.9375,-1.25 1.5,-1.5625 -0.8125,-1.375 1.625,-0.8125 1.6875,1.1875 1.375,1.875 1.875,-0.8125 0.625,-1.0625 2,0.1875 1.625,1.625 1.625,-1 1.4375,-0.375 2.6875,1.1875 2.9375,2.5625 2.0625,0.0625 -0.125,-2.4375 -1.6875,-3.5 0.25,-0.4375 0.75,-0.375 z m 29.75,1.6875 -0.375,0.25 -0.1875,0.25 -1.0625,0.625 -0.125,0.4375 -0.3125,0.375 -0.1875,0.1875 0,0.3125 -0.1875,0.25 0,0.125 0.375,0.0625 0.1875,0.0625 -0.125,0.375 -0.25,0.375 -0.3125,-0.125 -0.0625,-0.3125 -0.25,-0.0625 -0.3125,0.125 -0.125,0.4375 0.1875,0.125 0.125,0.1875 -0.0625,0.5 0.0625,0.3125 0.375,0.25 0.125,0.3125 0,0.5625 0,0.3125 0.375,-0.0625 0.25,-0.4375 0.0625,-0.5625 0.0625,-0.25 0.3125,0 0.1875,-0.1875 0,-0.625 -0.1875,-0.5625 0.125,-0.375 0.1875,-0.1875 0.3125,0.0625 0.375,-0.1875 0.1875,-0.5 0.375,-0.625 0.1875,-0.3125 0.375,-0.0625 0,-0.25 -0.25,-0.125 -0.0625,-0.5 -0.3125,0 0,-0.1875 0.1875,-0.25 -0.25,-0.125 z M 195,459 l -0.4375,0.1875 -0.3125,0.375 -0.1875,0.3125 0,0.3125 0.125,0.4375 -0.0625,0.3125 -0.25,0.375 -0.0625,0.375 0.1875,0.125 0.375,-0.25 0.0625,-0.25 0.125,-0.25 0.375,-0.3125 0.3125,-0.375 0.0625,-0.5 0.25,-0.0625 0.1875,-0.1875 0,-0.375 -0.125,-0.25 -0.3125,0 -0.3125,0 z m -13.4375,0.6875 -0.1875,0.25 -0.0625,0.3125 -0.125,0.4375 0.3125,0.25 0.4375,-0.5 0.5625,-0.125 -0.0625,-0.1875 -0.375,-0.125 -0.25,-0.3125 -0.25,0 z m -16.75,0.125 L 164.5,460 l -0.0625,0.125 0.125,0.25 0.0625,0.5 0.625,1.3125 0.1875,0.75 0.4375,1 0.625,0.9375 0.4375,0.75 0.375,0 0.1875,0.1875 0.3125,0.5 0.6875,0.1875 0.4375,-0.125 0.1875,-0.375 -0.0625,-0.375 -0.25,-0.25 0.0625,-0.3125 0,-0.6875 -0.125,-0.5625 -0.25,-0.4375 -0.0625,-0.25 -0.6875,-0.6875 -0.125,0.125 0.0625,0.3125 L 167.5,463 167.25,462.875 166.9375,462.3125 167,462 l 0.25,-0.125 0.25,0 0.125,-0.125 -0.5,-0.5 -0.4375,-0.1875 L 166.375,461.25 166,461 l -0.5,-0.5625 -0.3125,-0.1875 -0.375,-0.4375 z m 31.25,0.5 -0.25,0.1875 -0.0625,0.375 -0.3125,0.1875 0.1875,0.3125 -0.0625,0.875 0.125,0.25 0.4375,0 0.125,-0.25 -0.125,-0.8125 0.4375,-0.6875 -0.0625,-0.3125 -0.4375,-0.125 z m -11.0625,0.375 -0.25,0.1875 -0.25,-0.0625 -0.1875,0.125 0.0625,0.1875 0.125,0.25 0.3125,0.125 0.125,0.25 0.125,0.4375 0,0.375 -0.125,0.4375 -0.0625,0.375 0.0625,0.1875 0.125,0.25 0.125,0.1875 0,0.4375 -0.1875,1.1875 0,0.375 0.3125,0.1875 0.3125,0 0.8125,0.5 0.5,-0.125 1.1875,-0.25 0.5625,-0.125 0.3125,-0.375 0.125,-0.5 0.0625,-0.4375 -0.25,-0.4375 -0.5,-0.25 -0.6875,-0.25 -0.5,0.125 -0.1875,-0.3125 0.5,-0.125 0.5,-0.0625 0.25,0.0625 0.25,-0.0625 0.25,-0.1875 0,-0.3125 -0.1875,-0.25 -0.3125,0 -0.4375,0.25 -1.5625,-1 -0.375,-1.125 -0.125,-0.125 -0.5,-0.0625 L 185,460.6875 z M 164.0625,461 l -0.4375,0.125 -0.3125,0.125 -0.375,0.3125 0.0625,0.5 0.125,0.4375 0.125,0.3125 0.25,0.125 0.1875,-0.0625 0.25,0 0.375,0.9375 0.25,0.25 0.375,-0.0625 0.0625,0.375 -0.125,0.3125 0.3125,0.125 0.125,0.6875 -0.0625,0.3125 0,0.375 0.1875,0.25 0.375,0.1875 0.875,0.4375 1,0.8125 0.875,-0.0625 0.3125,0.0625 0.1875,0.1875 0.6875,0.1875 0.625,-0.3125 0.125,-0.125 -0.125,-0.3125 -0.75,-0.375 0.0625,-0.1875 -0.3125,-0.0625 -0.5625,0.25 -0.3125,-0.0625 -0.625,-0.25 -0.8125,-0.5 -0.5,-0.375 -0.625,-0.125 -0.5,-1.75 -1.0625,-3.0625 -0.3125,0 z m -2.0625,0.4375 -0.5,0.1875 -0.0625,0.375 0.0625,0.25 0,0.3125 -0.0625,0.25 0.0625,0.1875 0.4375,0.4375 0.1875,0.375 -0.0625,0.375 0.25,0.5 0.375,0.375 0.3125,0.0625 0.1875,-0.3125 -0.125,-0.5 0.0625,-0.3125 0.125,-0.25 0,-0.375 -0.25,-0.25 -0.3125,-0.9375 -0.3125,-0.375 L 162.3125,461.5 162,461.4375 z m 14.6875,0.875 -0.1875,0.125 0,0.1875 0.0625,0.1875 0.3125,0.125 0.1875,0.25 0,0.3125 0.0625,0.25 0.375,0.5625 0.5,0.1875 0.5625,0 0.375,-0.1875 0.3125,-0.1875 0.125,-0.3125 -0.125,-0.1875 -0.0625,-0.125 0.125,-0.125 0.375,-0.0625 0.1875,-0.0625 -0.0625,-0.25 -0.375,-0.125 -0.3125,0.1875 -0.25,-0.0625 -0.6875,-0.125 -0.625,-0.3125 -0.5,-0.1875 -0.375,-0.0625 z m 13.1875,0.125 -0.75,0.3125 0.6875,1.125 0.1875,0.625 0,0.5 -0.0625,0.8125 0.1875,0.125 0.25,-0.125 0.5625,-0.375 0.375,-0.3125 0.125,-0.4375 0,-0.625 -0.0625,-0.5 -0.25,-0.5 -0.625,-0.4375 -0.25,0.25 -0.375,-0.4375 z m 5.375,0.6875 -0.1875,0.0625 -0.25,0.3125 -0.125,0.3125 -0.125,0.625 -0.0625,0.625 -0.1875,0.25 0.8125,0.0625 0.1875,-0.1875 -0.25,-0.375 -0.0625,-0.25 0.25,-0.5625 0,-0.3125 0.3125,-0.1875 -0.0625,-0.25 -0.25,-0.125 z m -13.9375,0.4375 -1,0.0625 -0.0625,0.375 -0.25,0.125 -0.5625,0.3125 -0.0625,1.125 0.0625,0.3125 0,0.1875 0.3125,0.1875 0.5625,0.0625 0.5,-0.25 0.3125,-0.3125 0.125,-0.3125 0.0625,-0.75 0.625,0.125 0.3125,0.125 0.4375,-0.0625 0.25,0.125 -0.1875,0.3125 -0.375,0.25 -0.125,0.1875 0.1875,0.6875 -0.1875,0.1875 -0.1875,0.1875 0.3125,0.1875 0.8125,0.0625 0.4375,0.6875 0.4375,0.1875 0.25,0.6875 0.625,0.375 0.5,0.0625 0.3125,0.6875 1,0.25 0.25,-0.1875 0.3125,-0.3125 0.375,-0.1875 0,-0.5 0.625,-0.1875 0.25,-0.3125 0.375,-0.125 0.4375,-0.125 -0.0625,-0.25 1.125,-1.375 -0.125,-0.25 -1.625,0.5 -1.6875,0.25 0,0.25 0.3125,0.25 -0.125,0.25 -0.1875,0 -0.75,-0.3125 -0.25,-0.3125 -0.5,-0.375 -0.625,-0.1875 -0.6875,0.1875 -0.25,-0.25 0.125,-0.4375 0.4375,-0.6875 0.0625,-0.1875 -0.1875,-0.1875 0.3125,-0.1875 0,-0.3125 -0.75,-0.6875 -0.5,-0.1875 -0.875,0.125 -0.3125,-0.125 -0.5,0.0625 -0.4375,-0.0625 z m -11,0.6875 -0.5,0.0625 -0.125,0.25 L 169.5,465 l 0.0625,0.3125 0.625,0.75 0.3125,0.5 0.375,0.0625 0.375,-0.3125 0.0625,-0.5 0.0625,-0.1875 0.1875,-0.125 -0.0625,-0.3125 -0.25,0 L 171,465 l -0.3125,-0.5625 -0.375,-0.1875 z m 22.3125,1.6875 -0.3125,0.125 -0.625,0.5 -0.3125,0.25 -0.1875,0.5625 0,0.4375 0.25,0 0.375,-0.125 0.375,0.1875 0.3125,-0.3125 0.125,-0.625 0.5,-0.5625 -0.5,-0.4375 z m -76.5625,0.25 1.5625,0.3125 3.375,0.125 0.875,1.625 1.375,-0.6875 3.375,0.25 1.6875,1.25 4.5,-1.5 1,0.125 -0.875,1.5 L 131,470 l -2.5625,0.25 -1.625,0.6875 -2.625,0.9375 -0.1875,1.6875 -1.125,1.125 -1.625,-0.1875 -2.75,-0.3125 -1.25,-1.8125 0.9375,-1.4375 -1.875,-2.4375 -3.1875,1.125 -3.375,-1.375 -0.0625,-1.1875 3.3125,0.125 3.0625,-1 z m 74.75,3.625 -0.25,0.3125 -0.1875,0.3125 -0.5,0.9375 -0.0625,0.3125 0.375,-0.3125 0.375,-0.25 0.5,-0.1875 0.375,-0.125 0.3125,-0.1875 0.125,-0.4375 -0.3125,0 -0.625,0.3125 0.125,-0.5625 -0.25,-0.125 z m -5.25,4.75 -0.0625,0.0625 -1.1875,1.4375 -1,0.4375 -0.0625,0.1875 0.1875,0.0625 0,0.1875 -0.625,0.875 0.0625,0.1875 0.3125,-0.0625 0.0625,0.1875 -0.125,0.125 -0.1875,0.25 -0.1875,0.25 0.0625,0.5625 0.5,0.25 0.5625,-0.1875 0.125,0.375 0.3125,0 0.25,-0.375 0.125,-1.6875 0.625,-0.625 0,-0.625 0.5625,-0.5 0.1875,-0.4375 -0.5,-0.9375 z m -7.125,4.25 -0.6875,0.375 -0.75,0 -0.25,0.125 -0.1875,0.3125 0,0.0625 0.0625,0.375 -0.0625,0.3125 -0.5,0.5 -0.0625,0.1875 0.0625,0.5625 -0.125,0.3125 0.125,0.0625 0.375,-0.125 0.1875,-0.1875 0.1875,-0.5 0.25,-0.125 0.1875,0.1875 0.0625,0.375 0.25,0.1875 0.4375,-0.125 0.25,-0.25 -0.3125,-0.5625 -0.0625,-0.375 0.25,-0.1875 0.25,0.125 0.1875,-0.1875 -0.0625,-0.375 0.1875,-0.375 0.375,-0.0625 0.3125,-0.1875 0.125,-0.25 -0.3125,0 -0.75,-0.1875 z m 4.5,2.125 -0.3125,0.1875 -0.25,0.375 -0.75,0.5 -0.4375,-0.125 -1.4375,0.875 -0.25,0.1875 -0.6875,0.5625 -0.5625,0.5 0.0625,0.375 0.1875,-0.0625 0.375,-0.1875 0.375,-0.375 0.125,0.1875 0,0.375 0.6875,0.0625 0.25,-0.1875 0.25,-0.25 0.3125,-0.1875 0.4375,0.125 0.75,-0.4375 -0.25,-0.3125 -0.375,-0.25 0.1875,-0.3125 1.25,-0.75 0.1875,-0.1875 0,-0.5 -0.125,-0.1875 z M 91,522.625 l -1.75,2.8125 -0.5,1.9375 -2.4375,1.5625 -1.75,3.0625 -0.5,2.1875 -0.25,2.6875 -1.25,0.125 -0.75,0.5625 -0.6875,-0.5 0.25,-1.875 L 81,533.25 80.3125,532.625 80.5,529.25 l 1.0625,-1.8125 0.9375,-3.125 0.5625,-3.6875 0.1875,-1.875 0.875,-1.875 0.75,-3.375 1.75,-2.125 1.1875,-2.625 1.375,-3.0625 1,-0.5625 1.0625,-2.75 0.1875,-1.8125 0.125,-2 1.125,-1.0625 2,-0.9375 1.25,-1.5 2.3125,-1.4375 1.4375,-3.25 1.5625,-1 0,2.4375 0.8125,-0.25 0.125,1.625 -1,2.0625 -0.3125,3.0625 -1.6875,2 1.6875,1.375 1.4375,0.3125 0.8125,0.75 -1.5,0.9375 -0.9375,2.3125 -1.5,0.6875 -1.0625,-1.125 L 97.0625,506 97,507.5 l -2.8125,2.3125 -0.375,1.5625 -0.5,1.5625 0.3125,1 -0.625,1 -0.625,3.125 L 91,522.625 z m -9.25,-43.5625 -2.8125,1.6875 0.4375,2.25 -0.5,2.5625 -1,2.1875 -1.4375,1.4375 -1.25,-0.875 -4.0625,-0.8125 -0.5,1.5 1.375,1.4375 0.25,1.75 1.0625,-0.75 1.75,-0.625 0.875,0.5 -0.6875,1.125 -2.25,1.875 -1.625,0.4375 -2.1875,0 -2.0625,1.25 -2.375,0.75 -2.1875,1.5 -0.6875,2.375 -0.5,2.125 -1.1875,0.8125 -1.875,-0.3125 -0.9375,-0.75 1.4375,-4.3125 0.9375,-2.9375 -1,-0.875 -1.625,-0.375 -2.6875,4.1875 -1.625,1.625 0.0625,0.875 -1.5,2.375 -2.9375,0.4375 -1.8125,2.125 0.0625,1.0625 -1.75,0.6875 0.5625,-2.75 -1.4375,-0.1875 -2.125,3.125 -1.375,-0.3125 -0.875,0.625 -2.25,-0.4375 0.125,-1.375 1.5,-2.0625 1.9375,-1.1875 1.5625,-1.875 1.125,-2 1.4375,-1.75 1.1875,-1.0625 -0.4375,-0.8125 -2.5,-0.25 -1.0625,-1.3125 -0.0625,-2.6875 1.75,-2.6875 2.0625,-3.125 0.5,-3.5 0.9375,-1.4375 2.1875,-3.75 L 52.75,475.5 52.875,477.375 55,477 l 0.625,1.875 1.25,0.0625 0.5625,4.5625 2.5,1.5 1.125,-1 -0.625,-7.125 -1.1875,-4.75 -1.375,-3.5625 1.3125,-1.3125 0,-3.4375 0.75,1.125 0.875,1 1.5,-0.1875 -0.625,-1.375 0.75,-1 2.25,-0.3125 1.3125,1.625 1.5,3.3125 1.8125,-1.75 0.6875,-2.1875 2.125,-0.9375 1.1875,2 1.625,-1.4375 1.6875,1.4375 1.4375,0.9375 2,-0.0625 0.75,4.25 -1.625,3.1875 -1.4375,2.75 -0.0625,2.5625 0.8125,0.3125 1.0625,-1.8125 1.75,-1.3125 1.25,1.0625 -0.8125,2.0625 z m -58.5625,32.125 -0.5,0.0625 -0.8125,0.4375 -0.125,0.6875 0.0625,0.6875 -0.1875,0.5 -0.3125,0 -0.625,-0.125 -0.5,0.125 -0.5625,0.625 -0.5,0.625 -0.6875,0.375 -0.5,0.3125 -0.75,0.25 -0.375,0.3125 -0.5,0.3125 -0.625,-0.0625 -0.625,-0.1875 -0.6875,0.875 -0.5,1.125 0.3125,-0.125 0.375,-0.5625 0.5,0.125 0.125,0.5 0.4375,0.5 0.5,0.6875 0.375,0.625 -0.1875,0.5625 -0.375,0.5625 -0.25,0.25 0.375,0.375 0.5,-0.4375 0.25,0.375 0.375,0.1875 0.5,-0.125 0.5,-0.5625 0.4375,-0.6875 0.1875,-0.6875 0.375,-0.5 0.8125,-0.5 0.5625,0.3125 0.6875,0.5 0.4375,0.375 -0.125,0.625 0.5625,0.125 0.5,-0.6875 0.5,-0.3125 0.25,-0.0625 0.6875,-0.0625 0.875,-0.0625 0.25,-0.8125 0.125,-1.1875 -0.0625,-0.9375 0.1875,-0.75 0.3125,-0.8125 -0.1875,-0.625 -0.4375,-0.5625 -0.4375,-0.4375 -0.4375,-0.375 -0.1875,-0.8125 0,-0.8125 -0.875,-0.125 z m 0.25,8.8125 -0.0625,0.625 -0.125,0.625 0.25,-0.0625 0.3125,-0.4375 0.0625,-0.5 -0.4375,-0.25 z m -0.5,0.1875 -0.375,0.75 0.5,0.0625 -0.125,-0.8125 z m -2.0625,0.25 -0.25,0.1875 -0.5,1.1875 -0.3125,0.3125 -0.5,0.125 -1.375,-0.25 -0.375,0.125 -0.3125,0.25 -0.3125,0.625 0,0.4375 0.1875,0.375 0.4375,0.125 1,-0.0625 0.0625,0.375 -0.0625,0.3125 -0.6875,0.0625 -0.25,0.125 -0.125,0.4375 0.0625,0.625 0.125,0.3125 0.1875,0.125 0.4375,0.25 0,0.875 0.125,0.375 0.8125,0 0.25,-0.4375 0.25,-0.5 0.3125,-0.25 0.5625,-0.1875 0.375,-0.25 0,-0.3125 0.25,-0.5625 0.1875,-0.8125 0.5,0.0625 0.0625,0.5625 0.375,0 0.375,-0.3125 0.25,-0.6875 0.0625,-1.125 L 23,522.125 l -0.4375,-0.5 -0.75,0.5 -0.4375,-0.25 0.3125,-0.5 0.125,-0.5 -0.5,-0.375 -0.4375,-0.0625 z m 183.5625,5.125 -1.8125,1.1875 -0.4375,1.875 -1.25,1.0625 -3.5,-0.6875 -1,1.0625 -1.0625,3.125 -1.6875,-3.625 -1.3125,0.75 -1.125,1 -0.4375,1.9375 -1.1875,0.375 -1.375,0.5 -1.3125,1.125 -0.75,2.9375 -1.75,3.5 -1.625,2.375 -1.375,0.625 -1.9375,2.4375 -0.375,1.8125 0.5625,2.25 0.5625,2.4375 0.9375,1.1875 -0.3125,3 -1.25,1.5 -0.3125,1.8125 1.375,0.4375 0,3.5625 0.75,0.6875 1.125,0.8125 -0.3125,2.75 0.5625,0.3125 1.5625,-1.3125 0.3125,1.0625 -0.625,1.375 -1.625,1.0625 -0.1875,1.9375 -1.375,3.25 1.6875,0.125 2.75,-1.9375 1.75,-2.5625 -1.375,-0.5625 -0.125,-3 2.5625,-2 -1,-0.5 3.5,-2.75 0.375,-1 2.8125,-1.0625 0.875,-1.6875 -1.0625,-0.6875 -0.0625,-1.4375 1.6875,-2.75 1.5625,-0.5 1.9375,-0.6875 0.75,-2 -1.5625,-0.375 -1.625,-1.125 -1.125,-2.1875 0.75,-1.4375 0.25,-2.8125 -0.875,-0.5625 0.75,-3.3125 0.1875,-2.5 1.3125,0.875 1.875,-0.125 0.125,-2.875 1.5625,-0.0625 -0.125,-1.75 0.8125,-0.5625 1.5625,-1 0.875,-1.875 -0.5,-1.1875 0.5625,-0.6875 1.5,-0.5625 1.8125,-0.0625 0.6875,-0.8125 -0.4375,-1 -1.375,0.1875 -2.0625,-0.6875 z m -184.375,3.625 -1,0.1875 -0.875,1.1875 0.75,0.5625 1.8125,-0.875 0.375,-1 -1.0625,-0.0625 z m -1.5,5 -0.6875,2.3125 0.4375,0.1875 1.0625,-1.375 -0.8125,-1.125 z m 1.9375,1.75 -0.4375,0.1875 -0.5,0.375 L 19.5,537.375 19.0625,537.3125 19,537.75 l 0.1875,0.1875 -0.0625,0.4375 -0.625,-0.0625 0.0625,0.4375 1.1875,0.9375 0.25,-0.1875 0.1875,-0.5 0,-0.8125 0.3125,-0.875 0.3125,-0.5625 -0.3125,-0.8125 z m 133.0625,21 -1,0.875 -1.375,2 -0.1875,2.3125 -0.25,1.5 -1,0.625 0.3125,1.5625 -0.625,2.375 -1.125,2.4375 -0.75,1.9375 -1,1 -0.8125,2.25 -0.75,2.875 -1.5,0 -1,0.875 -0.875,2.75 -1.3125,2.6875 -1.5625,3.9375 -0.4375,2.4375 -1.3125,2.3125 -0.1875,1.875 0.1875,4.75 0.5,0.25 -0.125,7.375 0.5,0.8125 -0.1875,2.375 1.6875,-1.5 0.8125,-2.625 1.625,-3.9375 -0.375,-1.5625 1.0625,-2.5625 0.75,-2.875 0.1875,-2.125 1.3125,-1.375 -0.1875,-1 L 145,589 l 1.875,-6.875 1.1875,-0.3125 0.6875,-1.6875 -0.0625,-1.4375 0.5625,-1.0625 0.0625,-3.1875 1.375,-1.25 -0.625,-1.5 1,0.0625 0.875,-3.1875 1.25,-2.75 0.625,-0.625 0,-2.8125 -0.375,-1.0625 0.625,-1.5625 1.25,-0.6875 -0.4375,-1.8125 -0.75,0.375 -0.5625,-0.6875 z" fill="#fecc00"/>
    </symbol>
  </defs>

  <defs>
    <radialGradient id="bgRadial" cx="50%" cy="55%" r="70%">
      <stop offset="0" stop-color="#152448"/>
      <stop offset="1" stop-color="#060a18"/>
    </radialGradient>
    <radialGradient id="auroraGreen" cx="25%" cy="20%" r="55%">
      <stop offset="0" stop-color="#22d77a" stop-opacity="0.30"/>
      <stop offset="0.6" stop-color="#22d77a" stop-opacity="0.05"/>
      <stop offset="1" stop-color="#22d77a" stop-opacity="0"/>
    </radialGradient>
    <radialGradient id="auroraPurple" cx="78%" cy="28%" r="45%">
      <stop offset="0" stop-color="#9b59ff" stop-opacity="0.28"/>
      <stop offset="0.6" stop-color="#9b59ff" stop-opacity="0.05"/>
      <stop offset="1" stop-color="#9b59ff" stop-opacity="0"/>
    </radialGradient>
    <radialGradient id="auroraTeal" cx="52%" cy="92%" r="40%">
      <stop offset="0" stop-color="#3eecff" stop-opacity="0.18"/>
      <stop offset="1" stop-color="#3eecff" stop-opacity="0"/>
    </radialGradient>
    <pattern id="stars" x="0" y="0" width="80" height="80" patternUnits="userSpaceOnUse">
      <circle cx="14" cy="22" r="0.8" fill="#ffffff" fill-opacity="0.4"/>
      <circle cx="55" cy="48" r="0.6" fill="#ffffff" fill-opacity="0.3"/>
      <circle cx="32" cy="68" r="0.5" fill="#ffffff" fill-opacity="0.25"/>
    </pattern>
    <filter id="swedenSoftGlow" x="-20%" y="-20%" width="140%" height="140%">
      <feGaussianBlur stdDeviation="6" result="blur"/>
      <feMerge>
        <feMergeNode in="blur"/>
        <feMergeNode in="SourceGraphic"/>
      </feMerge>
    </filter>
  </defs>
  <rect width="1200" height="675" fill="url(#bgRadial)"/>
  <rect width="1200" height="675" fill="url(#stars)"/>
  <rect width="1200" height="675" fill="url(#auroraGreen)"/>
  <rect width="1200" height="675" fill="url(#auroraPurple)"/>
  <rect width="1200" height="675" fill="url(#auroraTeal)"/>

  <defs>
    <clipPath id="swedenClip">
      <path d="m 145.3125,527.5 0.5,3.75 -0.5,2.75 -1.4375,-1.1875 -2.125,-0.4375 -1.625,2.4375 2.125,3.0625 1.8125,1.25 0.0625,2.25 -1.4375,0.875 -0.6875,1.8125 0.875,1.1875 1.625,-0.625 0,1.5 -0.875,0.8125 -2.25,0.25 2.25,2.6875 0.5625,1.6875 -0.8125,2.75 -0.9375,2.5 -1.75,0.0625 0.3125,2.5 -1.9375,1.5 0.4375,2.25 -0.875,1.8125 0.9375,3 2.125,1 -2.25,3.375 -0.875,2.5 0.125,2.0625 -0.5625,2.5 -0.75,4.1875 0.9375,-0.5625 0.6875,1.1875 -0.8125,0.9375 -1.0625,-0.9375 -1.0625,4.6875 -1.875,0.4375 -1.125,2.25 -0.3125,1.375 0.0625,2.1875 -0.9375,0.375 -0.625,2.125 -1.0625,1.125 -0.9375,3.125 -0.8125,3.6875 -1.0625,4.0625 -1.375,2.875 -1.125,0.75 -1.5625,3.4375 -1.6875,-1.5 -2,1.1875 -1.1875,-0.4375 1.625,-1.5625 0.4375,-1.375 -1.3125,-1.125 -2.5625,0.4375 -0.875,-0.625 -1.6875,0.625 -1,1 -1.1875,-1.3125 -0.625,1.1875 -1.8125,1 -0.5625,-2 -1.0625,0.375 -2.3125,0.375 -1.75,-0.0625 -0.9375,-1.125 -1,1.125 -1.8125,0.0625 -2.625,0.125 -1.9375,0.25 L 94.375,613.25 93,612.9375 93.0625,614.875 94,617 l 1.5625,1.6875 -1.5,1.6875 -1.625,-0.125 L 91,619.5 l -1.5625,-1.3125 -2.0625,0.6875 -1,1.875 -2,1.1875 L 83.5,624 l -1.125,0.5625 -1.9375,3.5 -0.3125,3.1875 0.375,3.0625 1.5625,1.0625 0.4375,2.6875 1.375,1.25 0.3125,2.0625 -0.875,1.75 -1.9375,2.0625 -1.375,2.5 -0.5,0.875 -2.3125,-0.375 -1.125,0.125 -2.6875,-2.0625 -1.0625,-0.4375 -1.75,0.375 -3,-0.25 -0.9375,0.5625 -1.375,0 -1.5,1.8125 -2.875,-0.125 L 60,648.5 l -0.875,0.6875 -1.0625,0.0625 -1.1875,0.75 -0.4375,-0.5 -0.875,0.125 -0.625,-0.25 -1.3125,-0.75 -2.4375,-0.625 -0.9375,0.1875 -0.625,0 -1.25,-0.875 -0.9375,-0.6875 -0.8125,0.1875 -0.375,0.1875 -0.125,0.375 -0.4375,0 -0.375,-0.4375 -0.5,-0.125 -1.5625,0.5625 1.375,-2.8125 0.125,0.3125 0.25,1 0.75,0.3125 0.625,0.125 0.3125,-0.5625 0.375,-1.0625 0.125,-1.0625 -0.25,-0.8125 L 46.625,642 l -0.5,-1.25 -0.125,-1.1875 0,-0.875 0.5,-0.5 1.375,-0.8125 0.8125,-0.5625 1.0625,-0.25 0.1875,-0.5625 0,-0.5 0,-0.3125 0.375,-0.9375 0,-0.375 -0.3125,-0.9375 -0.4375,-0.3125 -0.9375,-0.75 -0.625,0 -0.4375,-0.1875 0.3125,-0.5 -0.3125,-0.6875 -0.75,0.375 -0.375,-0.6875 0.375,-0.5 0.3125,-0.25 -0.125,-2.375 -0.5,-1.75 -1.8125,-0.4375 -1.375,-4.25 -0.4375,-2.3125 -1,-1.9375 -1.25,-1.5625 -1,-1.625 -0.875,-1 -0.25,-0.8125 -0.4375,-2.875 -0.3125,-1.4375 -0.8125,-1.5 -1.0625,-0.875 1.1875,-0.125 2.3125,1.5625 2,1.1875 0.625,1 0.75,0 0.875,0.3125 0.625,0.1875 1,-0.6875 0.5625,-1.375 -0.6875,-1.5 -1.25,-1.3125 -0.5625,-1.6875 -1.25,-1.125 -1.375,-0.4375 -0.125,-1.8125 1.3125,-1.0625 1.25,-0.5 1.6875,0.75 1.25,0.9375 1.5,-0.625 0.875,-1.1875 0.5,-1.375 0.1875,-2.25 -0.3125,-2.0625 -0.6875,-2.375 -1.5,-0.875 -1.4375,0.875 -1.4375,-0.0625 -1,-2.1875 -0.8125,-1.9375 -0.8125,-2.5 0.125,-2.25 L 39.8125,578.875 37.875,577.3125 36,576.5625 34.75,575 l 0.4375,-1.4375 0,-1.25 -0.6875,-1.625 -1.125,-0.8125 -0.75,-1.875 -0.1875,-2.625 -1.1875,-2.0625 -1.5,-1.9375 0.125,-1.8125 1.25,-0.625 -0.125,-1.25 -0.1875,-1.5625 -0.375,-0.4375 -0.875,0.1875 -0.3125,-0.4375 0.6875,-1.6875 0.0625,-2.1875 -0.1875,-1 -0.5,-0.3125 -0.5,0.5 -0.375,1.125 -0.625,2.25 -0.3125,0.6875 -0.4375,0.25 -0.625,-0.3125 -0.375,-0.8125 -0.8125,-2.25 -0.125,-0.75 0.25,-0.875 L 26.0625,548.25 26,547 l 0,-1.5625 0.125,-1.0625 0.125,-2.0625 -0.1875,-0.4375 -0.4375,0.75 -0.3125,-0.0625 -0.6875,-2.0625 0,-0.375 0.1875,-0.375 1.8125,-1 -0.5,0 L 25.375,539 25,538.75 23.875,539 23.5,538.25 l -0.375,-0.1875 -0.375,0.125 -0.125,0.625 -0.3125,0.125 -0.3125,0 -0.4375,-0.125 -0.375,-0.6875 -0.125,-0.3125 0,-0.4375 0.5,-0.6875 0.875,-0.375 0.875,-0.25 0.3125,-1.5 -0.5,0 -0.75,0.125 -0.25,-0.1875 -0.125,-1 -0.1875,-0.375 -0.5,-0.5 -0.3125,-0.5 0.1875,-0.625 0.5,-0.625 0.3125,-0.625 0.25,-0.875 0.875,-1.5625 -0.3125,-0.5 0,-0.625 0.1875,-0.5 1.25,-1.3125 0.375,-1.125 0.0625,-1 -0.125,-1.0625 -0.0625,-1 0.4375,-0.5625 0.5,-0.6875 0.4375,-0.75 L 26,517.5 l -0.125,-1.0625 0.5,-0.1875 0.625,-0.625 0.0625,-0.75 -0.75,0 0,-1.0625 -0.4375,-1 -0.75,-1.25 0.1875,-0.5625 1,-1.125 -1.5,0 -1.0625,-0.375 -0.9375,0.0625 0.4375,0.5625 -0.25,0.5 -0.9375,-0.0625 -0.625,1.0625 -0.625,0.6875 -0.625,0.4375 -0.75,0.125 -0.4375,0.875 -0.625,0.75 -0.875,0.375 -1.1875,0.25 -1.0625,0 -0.1875,-0.25 0.6875,-1.125 0.375,-0.5625 0.75,-0.125 0.625,-0.4375 0.625,-0.6875 0.375,-0.5625 0,-1.25 -0.5625,0.4375 -0.625,0.875 -0.5625,0.5 -1,0.125 -0.0625,-0.3125 0.4375,-0.4375 0.1875,-0.8125 -0.5625,-0.125 -0.4375,-0.3125 0.25,-0.8125 0.25,-1 -0.75,0.1875 0.0625,-1.4375 -0.75,0.6875 -0.5625,-0.25 -0.25,-0.4375 -0.375,-0.0625 -0.1875,0.5 -0.875,0.5 -0.8125,0 -0.125,-0.4375 0.6875,-0.8125 -0.125,-0.5625 -0.0625,-0.625 0,-0.8125 0.1875,-0.625 0.5,-0.125 0.125,0.6875 0.3125,0.0625 0.5,-0.3125 0.1875,-0.5625 -0.125,-0.625 L 13.3125,502.5 12.25,498 l 1.0625,-1.4375 -1.0625,-4.125 -1.6875,-3.125 0.375,-4.0625 -0.125,-1.0625 L 10,481.75 l 0.0625,-0.6875 0.125,-0.1875 0.5625,0.25 0.3125,-0.125 0,-0.4375 -0.625,-0.9375 L 10.25,479.0625 10.3125,477 12.5,473.5 l 1,-0.1875 0.625,-0.3125 0.9375,-0.5625 1,0.3125 2,4.5 -0.5,4.375 0.125,1.125 1.1875,0.875 3.5625,-1.5 0.75,-1.9375 0.0625,-1.5625 0.9375,-2.3125 1.8125,-2.6875 -0.4375,-0.875 0.3125,-3.875 1.5625,-1.1875 0.1875,-5 -0.75,-2 -0.5,-4.875 -0.875,-4.625 1.25,-2.3125 2.6875,-0.5 0.75,-1.625 1.4375,-1.5625 -0.0625,-2.8125 -1.4375,-2.9375 2.6875,-2.4375 1.9375,0.8125 2.4375,-0.3125 1.5625,-1.6875 3,-1.3125 0.8125,-2.0625 1.625,-1.1875 1.5625,-4.25 0.9375,-2.4375 -0.625,-6.5625 2.75,-3.9375 0.0625,-5.0625 -1.9375,-3.8125 0.1875,-2.25 -2.5,-4.5 -1.0625,-4.8125 0.25,-2.0625 -2.125,-6 5.75,-1.25 2.9375,0.4375 1.375,-0.4375 0.6875,-4.4375 1.9375,-1.4375 1.1875,-2.75 1,-5.25 -5.75,-10.1875 -3.25,0.125 -5.6875,-7.625 4.5,-24.6875 -4.5,-16.75 2.0625,-6.125 -0.75,-7.125 L 46,293.9375 41.8125,281 l 5.4375,-9.125 -1.0625,-5.3125 3.125,-3.3125 0.625,-2.5625 1.4375,-1.6875 6.5625,-9.8125 4.5,-3.4375 6.375,-1.875 2.0625,0.5 8.5625,2.0625 5.125,1.8125 4.3125,-8.5625 -0.375,-9.5625 -0.0625,-2.875 -0.875,-1.125 -3.25,-1.125 -4.9375,-3.6875 11.5,-21.5625 2.375,-3.125 0.9375,-6 2.5625,-2.5 L 96.9375,181.5 98,170.3125 99.875,164.75 98.25,149.9375 l 8.375,-0.375 1.0625,-0.125 8.375,-6.4375 -0.3125,-2.875 -1.375,-6.0625 4.5625,-5.25 6.6875,-13 1.9375,-2.375 4.875,-4.25 0.875,-6.9375 -0.6875,-2.9375 -5,-8.75 1.5,-4 L 133,85.8125 134.9375,82 138,68.5625 l 1,-0.9375 7.375,-5.5625 1.625,-3.125 6.375,3.25 4.625,3.4375 0.4375,-1.5 3.5,-9.0625 -1.6875,-9.8125 0.125,-6.125 4.8125,-2.3125 3.5625,3.125 6.4375,-1.0625 16.3125,5.625 5.1875,-6.5625 -5.125,-2.4375 2.0625,-2 2.3125,-3.75 1.375,-6.0625 -0.75,-5.0625 -3.8125,-5.25 7.875,-1.4375 3.5625,0.5625 1.5,1.8125 1,0.4375 -0.3125,0.875 -0.8125,1.0625 1.375,1.625 1.375,-0.25 4.0625,3.5 1.25,2.3125 0.9375,-0.5625 1.0625,0.5 0.375,2.9375 1.4375,0.6875 1.9375,0.5625 1.9375,1.4375 -0.0625,1.5 2.25,-0.0625 3,1.6875 0.0625,1.4375 0.4375,1.1875 1.75,0.5 1.8125,0 1.375,-0.375 0.8125,1.375 0.75,-0.875 3.375,1.5 0.5625,-0.5 0.6875,0.9375 1.875,1.125 0.4375,-0.8125 0.9375,0.625 0.0625,1.25 1.875,0.875 0.5625,0.0625 1.9375,0.9375 0.3125,1.625 1.5,1.25 0.1875,1.625 -0.0625,1.8125 0.75,1.3125 1.625,-0.9375 1.1875,1.25 1.4375,3.5 1.25,0 0.375,1.25 1.0625,0 0.5625,1.75 1.5,0.1875 0.5,2.625 -1.9375,1.0625 -0.4375,3.125 0.5,1.75 0.1875,4.8125 1.625,2.5625 -0.3125,2.9375 -0.875,0 0.625,1.25 -1.125,2.375 1.8125,1.5 0.5625,-0.8125 2.6875,1.125 0.625,-0.8125 1.25,1.25 -0.4375,1.625 0.1875,1.9375 0.875,0.3125 -0.625,2.5 -2.1875,0.875 -0.3125,2.0625 0.625,1.125 -0.375,1.5625 2.25,3.0625 0.375,2.3125 1.875,2.0625 1,0.1875 0.3125,1.375 1.125,0.5625 0.25,1.875 2,2.3125 0.8125,1.625 -0.125,1.75 L 270.6875,110 270.5,111.3125 271,115 l -0.25,1.625 0.375,3.1875 -1.125,1.4375 0.1875,1.5 -1.4375,0.5625 0,1.5 -1.25,0.875 0,1.25 1.125,1.625 -0.625,4.125 2.5,5.6875 2.625,0.8125 1.4375,0.0625 0,1.5625 0.625,0.6875 0,1.1875 1.75,2.75 0.8125,2.75 2.9375,6.9375 -5.8125,1.25 -1.75,-1.3125 -1.3125,-0.0625 -0.25,1.25 -1.3125,0.5625 -2.1875,-1 -0.8125,2.1875 -2.9375,-0.9375 -1.25,-0.5 -0.75,1.375 -0.8125,3.6875 -2.0625,-1.75 -3.625,-1.375 -1.375,-3.3125 -1.625,-0.9375 -0.5625,0.6875 0.75,3.875 2.0625,2.125 0.125,1.5625 -1.4375,-0.5 -1.875,-2.25 -2.1875,0.1875 -0.0625,-1.6875 -1.625,-2.3125 -1.875,0.9375 -0.4375,3.0625 0.25,3.3125 0.5625,2.6875 0.5625,2.3125 1.1875,2 -0.9375,0.5 -2.4375,-0.6875 -1.0625,0.5 0.125,1.9375 -2.125,0.125 -3.25,0.1875 2.625,2.6875 -1.1875,2.25 -2.125,0.9375 -3.125,-0.1875 -2.875,1.1875 -0.8125,1.375 4.5625,2.875 -0.25,1.375 -1.6875,1.3125 1.0625,4.4375 -1.1875,3.1875 -2.375,5.4375 -2.3125,1 0.8125,2.375 -2.375,3.375 -2.3125,-0.375 1.25,2.5625 3.6875,0.25 0.125,3.875 -0.9375,1.3125 1.4375,2.375 2.3125,0.3125 1.875,1.9375 1.0625,3.75 1.625,-0.25 0.125,1.625 -2.25,4.3125 -4,3.375 -2.625,3.625 -2.25,3.0625 -0.5,4.5 -1.5,5.1875 -1.375,3.6875 -1.375,2.75 -3,0.5625 -1.625,2.1875 -0.375,3.375 -1.8125,0.0625 -0.4375,1.4375 -3.4375,0.25 -2.1875,-0.3125 -0.25,2.25 -1.75,-0.0625 -3.125,4.0625 -0.5625,1.0625 0.75,2.4375 -1.625,1.25 -2,-3.5625 -2.5,-2.25 -0.9375,1.375 1.4375,2.875 -1.8125,0.875 -2.25,-0.5 -0.75,6.5 -2.3125,0.625 -0.125,3.875 -1.5625,2.0625 -1.8125,-1.1875 -4.375,3.0625 -2.375,-0.0625 -2.0625,4.3125 -0.25,2.1875 -1.75,0.125 -0.4375,1.375 3.5,0.5 -1,3.25 -2.125,3.6875 -2.4375,-1.75 -1.0625,0.9375 1.3125,1.25 -2.9375,3.125 -2.6875,-0.5625 0.3125,1.625 2.875,-0.25 -2.1875,3.5625 -1.5,1.3125 1.9375,1.625 -3.25,2.625 -1.1875,3.5625 -2.125,-1.1875 -1.5625,1.4375 0.5,2.25 -3.1875,-0.6875 -1.625,-3.3125 -1.875,0.75 0.0625,1.25 2.25,0.8125 0.5,3.6875 -1.6875,0.5 -0.375,1.75 1.75,2.8125 3.3125,0.9375 -0.625,2.0625 -1.875,0.5 -0.9375,2.3125 -0.75,6.3125 -1.625,2.8125 -0.8125,4.125 1.5625,1.6875 -0.0625,2.75 0.75,1.25 2.0625,0.875 -0.6875,3.9375 -1.375,-0.5 -0.8125,-1.6875 -2.3125,-0.9375 -0.9375,2.25 -1.0625,2.5625 -1.3125,2.4375 1.5,3.375 -1.5625,2.75 0.375,2.375 2.75,3.1875 -0.75,2.9375 -1.5625,1.5625 0.6875,6.6875 -0.25,1.1875 1.75,1.375 -1.3125,2.3125 2.5625,4.5625 -0.6875,2.375 2.5,2.4375 -2.875,2.75 3.125,1.6875 5.8125,0 0,2.5 1.25,3.25 1.75,-0.375 1.25,-2.1875 2.6875,-1.25 1.875,1.25 0.3125,3 2.5,3.25 4,3.4375 2.25,0.625 0.8125,-1 -1,-4 0.0625,-2 0.8125,-0.4375 0.9375,4.0625 1.6875,2.75 1.625,0.5 -0.3125,1.5 -1.9375,0.1875 1.9375,1.5625 0.9375,1.8125 -0.625,1.25 -1.4375,0 0.1875,2.5625 2.3125,0.5 1.5,0.4375 0.6875,-1.5 0.1875,-2.375 1.9375,1.8125 -0.3125,3 0.9375,0.6875 1.125,4.125 1.75,2.9375 2.25,1.625 1.5,1.25 -0.875,2.5 -1.6875,0 0.125,2 2.3125,0.6875 0.25,2.0625 -1.3125,0.9375 -3.6875,-0.25 -2.6875,1.5 -0.3125,2.5 -1.25,2.1875 -0.875,0.5625 -0.5,0.3125 -0.6875,0.5 -0.75,0.5625 -0.1875,0.3125 -0.4375,0.0625 -0.9375,1.0625 -0.1875,0.125 -0.3125,0.5625 -0.375,0.375 -0.5,0.125 -0.125,0.1875 0,0.25 -0.4375,0.8125 -0.3125,0.0625 -0.3125,-0.0625 -0.375,0.0625 -0.125,-0.3125 -0.3125,0 -0.3125,0.125 -0.1875,-0.125 -0.1875,-0.25 -0.375,0.0625 -0.1875,0.25 0.3125,0.1875 0.3125,0.0625 0.125,0.25 -0.125,0.375 -0.25,0.25 -0.5,0.125 -0.375,-0.1875 L 179.5,460 l -0.125,0.25 0.125,0.1875 0.25,0.0625 0.4375,-0.0625 0.1875,0.25 0.375,0.5 -0.125,0.1875 -0.25,0.1875 0.0625,0.125 0.5625,0 0.1875,0.1875 -0.1875,0.25 -0.5625,0.1875 -1.3125,0.125 -0.375,-0.1875 -0.375,-0.0625 -0.5,-0.125 0,-0.5 0.0625,-0.5625 0.1875,-0.3125 0.4375,0.1875 0.1875,-0.125 0,-0.4375 0,-0.25 -0.125,-0.125 -0.5625,0.3125 -0.3125,0 -0.0625,-0.25 -0.125,-0.4375 -0.25,0.125 -0.75,0.5625 0.125,0.25 -0.3125,0.3125 -0.125,0.25 0,0.6875 -0.125,0.5625 -0.625,0.6875 0.875,1.0625 0.6875,0.5 0.3125,0.5 0,0.3125 -0.3125,0.1875 -0.375,-0.0625 -0.4375,-0.4375 -0.4375,0.0625 0.125,0.25 -0.25,0.125 0,0.0625 0.3125,0.1875 0.5625,0.0625 0.4375,0.0625 0.5,-0.125 0.875,-0.4375 0.4375,-0.25 0.1875,0 0,0.5625 0.0625,0.75 0.1875,0.25 0.875,0 0.5,-0.0625 0.375,0.125 0.1875,0.4375 0.125,0.3125 0.5625,0.125 0.375,0.125 0.0625,0.3125 -0.25,0.125 -0.4375,-0.125 -0.875,-0.1875 -0.375,0 -0.125,0.1875 0.0625,0.125 0.1875,0.1875 0.5625,0.0625 1.25,0.875 0.4375,0.5 0.375,0.125 0.375,0.0625 0.4375,0.8125 -0.1875,0.25 -0.5,0.3125 -0.1875,0.5625 0.3125,0.3125 0.75,0.3125 0.375,-0.125 0.375,-0.125 0.1875,0.125 -0.5,1.1875 -0.3125,0.1875 -0.3125,0.1875 -0.25,0 -0.0625,-0.1875 -0.25,-0.0625 -0.5625,0.625 -0.1875,0 -0.375,-0.0625 -0.3125,0.1875 -0.6875,0.3125 -0.375,0.6875 1.125,-0.125 0.0625,0.3125 -0.375,0.375 -1.1875,0.4375 -0.5625,0.3125 -0.3125,0.375 -0.3125,0.125 -0.0625,-0.25 0,-0.25 0.375,-0.375 0.25,-0.125 0.0625,-0.1875 -0.1875,-0.1875 0.125,-0.3125 0.25,-0.1875 0.25,0 0.25,-0.25 -0.0625,-0.1875 -0.25,-0.1875 -0.5,0.0625 L 179.5,475 l -0.1875,0.375 0.1875,0.1875 -0.125,0.25 -0.375,0.3125 -1.125,0.4375 -0.125,0.25 -0.625,0.1875 -0.1875,0.3125 -0.125,0.4375 -0.3125,0.125 -0.5625,0.0625 -0.375,0.1875 -0.1875,0.4375 0,0.375 -0.1875,0.25 -0.25,-0.125 -0.0625,-0.375 -0.3125,-0.0625 -0.0625,0.25 0.25,1.1875 0.0625,0.375 -0.125,0.1875 -0.1875,0.0625 -0.125,-0.4375 -0.1875,-0.25 -0.125,0.5 -0.0625,0.4375 -0.375,1.125 0.25,1.5 -0.25,1.0625 -0.5625,0.375 -0.5,0.625 -0.375,1.1875 -0.375,0.375 -0.5625,2.25 -1.5,0.5 0,-0.5 0.4375,-0.5625 0.3125,-0.5 0.0625,-0.75 -0.5625,-1.1875 -0.5625,-1.125 -0.5625,-0.5625 -0.1875,-0.4375 0.125,-0.3125 0.0625,-1.75 -0.3125,-0.375 0.0625,-0.375 0.1875,-0.5 -0.25,-1.375 -0.3125,-0.6875 0,-0.5 0.3125,-0.5625 0.25,-0.375 -0.125,-0.5 0.1875,-0.5625 0.3125,-0.1875 -0.1875,-0.625 0.0625,-0.4375 -0.875,0.5625 -0.125,0.3125 0.1875,0.875 -0.0625,0.5625 -0.6875,0.25 -0.375,-0.0625 -0.0625,-0.75 0,-0.625 0.25,-0.8125 -0.25,-1.3125 -0.1875,-0.25 -0.125,-0.5 -0.125,-0.375 -0.1875,-0.1875 -0.25,0.25 0.0625,0.375 0.4375,0.75 0.125,0.6875 0,0.5 -0.125,0.1875 -0.25,0.0625 -0.1875,-0.0625 -0.1875,0.3125 0.125,0.1875 -0.625,0.5 -0.1875,0.1875 0,0.375 0.3125,0.25 0.0625,0.25 -0.4375,0.75 0.0625,1.875 0.1875,0.625 0.25,-0.1875 0.375,-0.875 0.0625,-0.625 0.125,-0.8125 0.3125,-0.25 0.375,0.25 0.0625,0.5625 0.1875,2.25 0.0625,1.4375 -0.1875,0.875 -0.25,0.25 -0.4375,-0.1875 -0.5,-0.125 -0.375,1.8125 -1.1875,1.25 0.5625,1.25 -0.75,0.5625 -1.625,-1.3125 -0.375,2.9375 0.6875,0.75 -1.25,0.1875 -0.4375,-0.125 -0.6875,-0.125 -0.3125,2.0625 -1.5625,-0.3125 -1,1.1875 -2.4375,-0.5625 -1.25,0.0625 -1.1875,-1.25 -1.625,0.625 1.75,1.5625 1.1875,1.125 -1,1.6875 -1.5,-1 -1.375,-0.1875 -1.0625,0.5625 2,0.5625 0.0625,1 -2.625,0.9375 -2,-0.1875 -1.6875,-0.1875 -1.625,-0.125 -2.5,-0.4375 -3.25,-0.8125 -1.6875,0 -2.4375,-0.375 -0.9375,0.875 -0.0625,1.5625 0.8125,0.375 1.9375,-0.8125 1.3125,1.625 0.5,-2.125 3.625,0.25 3.4375,1.5625 2.8125,2.1875 1.875,1.875 -1.75,2.875 -2.625,1 -2.625,-0.5 -1.1875,-0.125 0.8125,1.1875 2.25,0.6875 0.625,1.5625 2.3125,0.1875 1.875,1.4375 -0.875,2.1875 -4.0625,0.875 2.125,1.5 1.3125,2 -1.1875,3.0625 -2.25,-1 0.375,1.4375 2,2 -1.5625,1 1,2.125 z M 146,136.625 l 4.375,2.125 2.0625,2.5 2.3125,2.3125 2.0625,2.3125 3,1.5 1.125,2.75 1.8125,1.75 1.6875,-0.8125 1.125,1.3125 -0.6875,1.0625 -2.75,0.5625 0.9375,2.9375 -0.8125,2.5 5,6.125 2.4375,-0.0625 1.5,0.9375 -0.3125,2 1,1.1875 2,1.5 -0.125,1.25 -4.4375,-1.4375 -1.1875,-0.75 -1.75,0.5625 -2,-5.8125 -3,-4.3125 -0.9375,2.625 -1.5625,0.0625 -0.4375,-2.875 0.6875,-1.6875 -0.1875,-1.625 -2.125,-2.9375 2.25,-1.125 1.625,-0.6875 -2.1875,-2.125 -2.375,-2.625 -3,-1.3125 -0.25,-2.125 -2.5,-3.3125 -4.875,-2.9375 0.5,-1.3125 z M 84.5625,280.3125 88,281.375 l 2.8125,1.1875 2.125,1.875 1.4375,-0.4375 2.3125,1.4375 -2.5,-0.3125 -0.3125,1.25 1.375,1.1875 1.0625,0.5 -1.25,0.625 L 93.5,289.25 93.75,292 94.3125,295.3125 95,300.25 94,303.875 92.6875,303.0625 91.5,299.5 l 1.375,-0.3125 0.0625,-3.25 -1.0625,-3.625 -0.4375,-2.25 -2,-1.625 -2.5,-0.9375 -1.625,-1.5625 2.125,-0.0625 -2.875,-5.5625 z M 95,388.5625 l 1.875,2.75 1.3125,0 3.625,3.6875 1.6875,-1.0625 1.25,-1.125 1.875,1.3125 -1.4375,1.625 -1.75,0.6875 -0.375,3.5625 -1.3125,-3.3125 -3.9375,1.9375 -1.375,-2.25 -2.3125,-3.0625 1.75,0.0625 1.0625,-0.5625 -1.125,-1.1875 -1.6875,-0.1875 -0.25,-1.75 1.125,-1.125 z m 100.125,60.8125 -1.375,0.8125 -1.0625,1.875 -1.1875,1.0625 0.4375,0.375 1.9375,-1.5 1.125,0.1875 0.125,-1.1875 1.3125,-0.125 0,-0.9375 -1.3125,-0.5625 z m -35.5625,2.875 0.125,0.8125 0.25,0.625 0.6875,0.9375 0.75,1 0.8125,0.5625 0.4375,-0.0625 0.3125,-0.5 0.3125,-0.6875 0.3125,-0.125 0.0625,0.3125 0.0625,0.3125 -0.25,0.75 -0.3125,0.25 -0.375,0.3125 -0.0625,0.25 0.125,0.3125 0.875,1 0.1875,-0.0625 -0.125,-0.3125 0.125,-0.3125 0.3125,-0.0625 0.1875,0.25 0,0.9375 0.125,0.375 0.375,0 0.125,-0.3125 -0.1875,-0.3125 -0.0625,-0.25 0.3125,-0.4375 0.5,0.0625 0.5,0.375 0.4375,0.25 0.0625,0.4375 0.25,0.3125 0.0625,0.75 0.375,0.1875 0.3125,0.0625 0,0.25 0.25,0.0625 0.25,-0.375 0,-0.9375 0.1875,-0.8125 0.25,-0.0625 0.25,0.6875 0.375,-0.25 0.25,0.25 -0.125,0.3125 -0.0625,0.125 -0.0625,0.125 -0.4375,1.5 -0.0625,0.5625 0.125,0.375 0.25,0.25 0.25,0.375 0.8125,0.875 0.625,0.625 0.9375,0.5 0.1875,0.4375 0.25,0.1875 0.4375,0.125 0.4375,0.4375 0.25,-0.0625 0.375,-0.125 0.125,-0.5 0.0625,-0.5 0.0625,-0.1875 0.125,0.0625 0.4375,0.5 0.4375,0.1875 0.375,0 0.5,-0.125 -0.0625,0.375 -0.0625,0.0625 -0.5,0.125 -0.5625,0.1875 -0.5,0 -0.1875,0.1875 -0.5625,0.125 -0.5,0.25 -0.4375,0.1875 -0.375,0.3125 -0.5625,0.3125 -0.125,0.5 0.1875,0.25 0,1.3125 -0.1875,0.375 -0.1875,-0.375 -0.1875,-0.5 -0.4375,-0.25 -0.875,0 -0.5625,0.125 -0.5,-0.1875 -0.5,0.4375 -0.5,-0.5 -0.25,-0.5 -0.5625,-0.3125 -0.6875,-0.1875 0,0.3125 -0.5,0.0625 -0.25,-0.1875 -0.4375,0.1875 -0.125,0.4375 0.125,0.25 0.1875,0.1875 0.0625,0.3125 0.1875,1 0.3125,0.875 -0.0625,0.3125 -0.375,-0.0625 -0.1875,-0.375 -0.4375,-1 -0.3125,-0.9375 -0.25,-0.375 -0.5625,0 -1.875,-1 -0.6875,-0.8125 -0.3125,0 -0.5625,-0.4375 -0.25,-0.0625 -0.1875,-0.3125 -0.375,0.125 0.0625,0.375 0.25,0.25 -0.0625,1.1875 0.125,0.3125 0.8125,1.3125 0.125,0.375 -0.8125,-0.375 -0.5625,-0.25 -0.6875,0 -0.6875,0.25 -0.4375,-0.75 -0.6875,-1.6875 1.25,-0.9375 -0.25,-1.4375 -0.6875,-0.1875 1.1875,-1.5625 L 157,460.5 l -3.1875,-0.75 -0.625,1 0.8125,2.8125 -1.75,0.125 -0.9375,-3 0.6875,-1.625 -1.375,-1 -1.0625,0.5 -0.375,1.625 L 146.5,459 l -1.25,0.5625 -1.9375,0.1875 -2.3125,0.75 -2.125,-0.4375 -2.3125,0.5 -4.4375,0.3125 -3.375,0.3125 -0.6875,-2 2.75,0.0625 1.5625,-0.9375 2,0.9375 2.8125,-0.6875 0.9375,-1.25 1.5,-1.5625 -0.8125,-1.375 1.625,-0.8125 1.6875,1.1875 1.375,1.875 1.875,-0.8125 0.625,-1.0625 2,0.1875 1.625,1.625 1.625,-1 1.4375,-0.375 2.6875,1.1875 2.9375,2.5625 2.0625,0.0625 -0.125,-2.4375 -1.6875,-3.5 0.25,-0.4375 0.75,-0.375 z m 29.75,1.6875 -0.375,0.25 -0.1875,0.25 -1.0625,0.625 -0.125,0.4375 -0.3125,0.375 -0.1875,0.1875 0,0.3125 -0.1875,0.25 0,0.125 0.375,0.0625 0.1875,0.0625 -0.125,0.375 -0.25,0.375 -0.3125,-0.125 -0.0625,-0.3125 -0.25,-0.0625 -0.3125,0.125 -0.125,0.4375 0.1875,0.125 0.125,0.1875 -0.0625,0.5 0.0625,0.3125 0.375,0.25 0.125,0.3125 0,0.5625 0,0.3125 0.375,-0.0625 0.25,-0.4375 0.0625,-0.5625 0.0625,-0.25 0.3125,0 0.1875,-0.1875 0,-0.625 -0.1875,-0.5625 0.125,-0.375 0.1875,-0.1875 0.3125,0.0625 0.375,-0.1875 0.1875,-0.5 0.375,-0.625 0.1875,-0.3125 0.375,-0.0625 0,-0.25 -0.25,-0.125 -0.0625,-0.5 -0.3125,0 0,-0.1875 0.1875,-0.25 -0.25,-0.125 z M 195,459 l -0.4375,0.1875 -0.3125,0.375 -0.1875,0.3125 0,0.3125 0.125,0.4375 -0.0625,0.3125 -0.25,0.375 -0.0625,0.375 0.1875,0.125 0.375,-0.25 0.0625,-0.25 0.125,-0.25 0.375,-0.3125 0.3125,-0.375 0.0625,-0.5 0.25,-0.0625 0.1875,-0.1875 0,-0.375 -0.125,-0.25 -0.3125,0 -0.3125,0 z m -13.4375,0.6875 -0.1875,0.25 -0.0625,0.3125 -0.125,0.4375 0.3125,0.25 0.4375,-0.5 0.5625,-0.125 -0.0625,-0.1875 -0.375,-0.125 -0.25,-0.3125 -0.25,0 z m -16.75,0.125 L 164.5,460 l -0.0625,0.125 0.125,0.25 0.0625,0.5 0.625,1.3125 0.1875,0.75 0.4375,1 0.625,0.9375 0.4375,0.75 0.375,0 0.1875,0.1875 0.3125,0.5 0.6875,0.1875 0.4375,-0.125 0.1875,-0.375 -0.0625,-0.375 -0.25,-0.25 0.0625,-0.3125 0,-0.6875 -0.125,-0.5625 -0.25,-0.4375 -0.0625,-0.25 -0.6875,-0.6875 -0.125,0.125 0.0625,0.3125 L 167.5,463 167.25,462.875 166.9375,462.3125 167,462 l 0.25,-0.125 0.25,0 0.125,-0.125 -0.5,-0.5 -0.4375,-0.1875 L 166.375,461.25 166,461 l -0.5,-0.5625 -0.3125,-0.1875 -0.375,-0.4375 z m 31.25,0.5 -0.25,0.1875 -0.0625,0.375 -0.3125,0.1875 0.1875,0.3125 -0.0625,0.875 0.125,0.25 0.4375,0 0.125,-0.25 -0.125,-0.8125 0.4375,-0.6875 -0.0625,-0.3125 -0.4375,-0.125 z m -11.0625,0.375 -0.25,0.1875 -0.25,-0.0625 -0.1875,0.125 0.0625,0.1875 0.125,0.25 0.3125,0.125 0.125,0.25 0.125,0.4375 0,0.375 -0.125,0.4375 -0.0625,0.375 0.0625,0.1875 0.125,0.25 0.125,0.1875 0,0.4375 -0.1875,1.1875 0,0.375 0.3125,0.1875 0.3125,0 0.8125,0.5 0.5,-0.125 1.1875,-0.25 0.5625,-0.125 0.3125,-0.375 0.125,-0.5 0.0625,-0.4375 -0.25,-0.4375 -0.5,-0.25 -0.6875,-0.25 -0.5,0.125 -0.1875,-0.3125 0.5,-0.125 0.5,-0.0625 0.25,0.0625 0.25,-0.0625 0.25,-0.1875 0,-0.3125 -0.1875,-0.25 -0.3125,0 -0.4375,0.25 -1.5625,-1 -0.375,-1.125 -0.125,-0.125 -0.5,-0.0625 L 185,460.6875 z M 164.0625,461 l -0.4375,0.125 -0.3125,0.125 -0.375,0.3125 0.0625,0.5 0.125,0.4375 0.125,0.3125 0.25,0.125 0.1875,-0.0625 0.25,0 0.375,0.9375 0.25,0.25 0.375,-0.0625 0.0625,0.375 -0.125,0.3125 0.3125,0.125 0.125,0.6875 -0.0625,0.3125 0,0.375 0.1875,0.25 0.375,0.1875 0.875,0.4375 1,0.8125 0.875,-0.0625 0.3125,0.0625 0.1875,0.1875 0.6875,0.1875 0.625,-0.3125 0.125,-0.125 -0.125,-0.3125 -0.75,-0.375 0.0625,-0.1875 -0.3125,-0.0625 -0.5625,0.25 -0.3125,-0.0625 -0.625,-0.25 -0.8125,-0.5 -0.5,-0.375 -0.625,-0.125 -0.5,-1.75 -1.0625,-3.0625 -0.3125,0 z m -2.0625,0.4375 -0.5,0.1875 -0.0625,0.375 0.0625,0.25 0,0.3125 -0.0625,0.25 0.0625,0.1875 0.4375,0.4375 0.1875,0.375 -0.0625,0.375 0.25,0.5 0.375,0.375 0.3125,0.0625 0.1875,-0.3125 -0.125,-0.5 0.0625,-0.3125 0.125,-0.25 0,-0.375 -0.25,-0.25 -0.3125,-0.9375 -0.3125,-0.375 L 162.3125,461.5 162,461.4375 z m 14.6875,0.875 -0.1875,0.125 0,0.1875 0.0625,0.1875 0.3125,0.125 0.1875,0.25 0,0.3125 0.0625,0.25 0.375,0.5625 0.5,0.1875 0.5625,0 0.375,-0.1875 0.3125,-0.1875 0.125,-0.3125 -0.125,-0.1875 -0.0625,-0.125 0.125,-0.125 0.375,-0.0625 0.1875,-0.0625 -0.0625,-0.25 -0.375,-0.125 -0.3125,0.1875 -0.25,-0.0625 -0.6875,-0.125 -0.625,-0.3125 -0.5,-0.1875 -0.375,-0.0625 z m 13.1875,0.125 -0.75,0.3125 0.6875,1.125 0.1875,0.625 0,0.5 -0.0625,0.8125 0.1875,0.125 0.25,-0.125 0.5625,-0.375 0.375,-0.3125 0.125,-0.4375 0,-0.625 -0.0625,-0.5 -0.25,-0.5 -0.625,-0.4375 -0.25,0.25 -0.375,-0.4375 z m 5.375,0.6875 -0.1875,0.0625 -0.25,0.3125 -0.125,0.3125 -0.125,0.625 -0.0625,0.625 -0.1875,0.25 0.8125,0.0625 0.1875,-0.1875 -0.25,-0.375 -0.0625,-0.25 0.25,-0.5625 0,-0.3125 0.3125,-0.1875 -0.0625,-0.25 -0.25,-0.125 z m -13.9375,0.4375 -1,0.0625 -0.0625,0.375 -0.25,0.125 -0.5625,0.3125 -0.0625,1.125 0.0625,0.3125 0,0.1875 0.3125,0.1875 0.5625,0.0625 0.5,-0.25 0.3125,-0.3125 0.125,-0.3125 0.0625,-0.75 0.625,0.125 0.3125,0.125 0.4375,-0.0625 0.25,0.125 -0.1875,0.3125 -0.375,0.25 -0.125,0.1875 0.1875,0.6875 -0.1875,0.1875 -0.1875,0.1875 0.3125,0.1875 0.8125,0.0625 0.4375,0.6875 0.4375,0.1875 0.25,0.6875 0.625,0.375 0.5,0.0625 0.3125,0.6875 1,0.25 0.25,-0.1875 0.3125,-0.3125 0.375,-0.1875 0,-0.5 0.625,-0.1875 0.25,-0.3125 0.375,-0.125 0.4375,-0.125 -0.0625,-0.25 1.125,-1.375 -0.125,-0.25 -1.625,0.5 -1.6875,0.25 0,0.25 0.3125,0.25 -0.125,0.25 -0.1875,0 -0.75,-0.3125 -0.25,-0.3125 -0.5,-0.375 -0.625,-0.1875 -0.6875,0.1875 -0.25,-0.25 0.125,-0.4375 0.4375,-0.6875 0.0625,-0.1875 -0.1875,-0.1875 0.3125,-0.1875 0,-0.3125 -0.75,-0.6875 -0.5,-0.1875 -0.875,0.125 -0.3125,-0.125 -0.5,0.0625 -0.4375,-0.0625 z m -11,0.6875 -0.5,0.0625 -0.125,0.25 L 169.5,465 l 0.0625,0.3125 0.625,0.75 0.3125,0.5 0.375,0.0625 0.375,-0.3125 0.0625,-0.5 0.0625,-0.1875 0.1875,-0.125 -0.0625,-0.3125 -0.25,0 L 171,465 l -0.3125,-0.5625 -0.375,-0.1875 z m 22.3125,1.6875 -0.3125,0.125 -0.625,0.5 -0.3125,0.25 -0.1875,0.5625 0,0.4375 0.25,0 0.375,-0.125 0.375,0.1875 0.3125,-0.3125 0.125,-0.625 0.5,-0.5625 -0.5,-0.4375 z m -76.5625,0.25 1.5625,0.3125 3.375,0.125 0.875,1.625 1.375,-0.6875 3.375,0.25 1.6875,1.25 4.5,-1.5 1,0.125 -0.875,1.5 L 131,470 l -2.5625,0.25 -1.625,0.6875 -2.625,0.9375 -0.1875,1.6875 -1.125,1.125 -1.625,-0.1875 -2.75,-0.3125 -1.25,-1.8125 0.9375,-1.4375 -1.875,-2.4375 -3.1875,1.125 -3.375,-1.375 -0.0625,-1.1875 3.3125,0.125 3.0625,-1 z m 74.75,3.625 -0.25,0.3125 -0.1875,0.3125 -0.5,0.9375 -0.0625,0.3125 0.375,-0.3125 0.375,-0.25 0.5,-0.1875 0.375,-0.125 0.3125,-0.1875 0.125,-0.4375 -0.3125,0 -0.625,0.3125 0.125,-0.5625 -0.25,-0.125 z m -5.25,4.75 -0.0625,0.0625 -1.1875,1.4375 -1,0.4375 -0.0625,0.1875 0.1875,0.0625 0,0.1875 -0.625,0.875 0.0625,0.1875 0.3125,-0.0625 0.0625,0.1875 -0.125,0.125 -0.1875,0.25 -0.1875,0.25 0.0625,0.5625 0.5,0.25 0.5625,-0.1875 0.125,0.375 0.3125,0 0.25,-0.375 0.125,-1.6875 0.625,-0.625 0,-0.625 0.5625,-0.5 0.1875,-0.4375 -0.5,-0.9375 z m -7.125,4.25 -0.6875,0.375 -0.75,0 -0.25,0.125 -0.1875,0.3125 0,0.0625 0.0625,0.375 -0.0625,0.3125 -0.5,0.5 -0.0625,0.1875 0.0625,0.5625 -0.125,0.3125 0.125,0.0625 0.375,-0.125 0.1875,-0.1875 0.1875,-0.5 0.25,-0.125 0.1875,0.1875 0.0625,0.375 0.25,0.1875 0.4375,-0.125 0.25,-0.25 -0.3125,-0.5625 -0.0625,-0.375 0.25,-0.1875 0.25,0.125 0.1875,-0.1875 -0.0625,-0.375 0.1875,-0.375 0.375,-0.0625 0.3125,-0.1875 0.125,-0.25 -0.3125,0 -0.75,-0.1875 z m 4.5,2.125 -0.3125,0.1875 -0.25,0.375 -0.75,0.5 -0.4375,-0.125 -1.4375,0.875 -0.25,0.1875 -0.6875,0.5625 -0.5625,0.5 0.0625,0.375 0.1875,-0.0625 0.375,-0.1875 0.375,-0.375 0.125,0.1875 0,0.375 0.6875,0.0625 0.25,-0.1875 0.25,-0.25 0.3125,-0.1875 0.4375,0.125 0.75,-0.4375 -0.25,-0.3125 -0.375,-0.25 0.1875,-0.3125 1.25,-0.75 0.1875,-0.1875 0,-0.5 -0.125,-0.1875 z M 91,522.625 l -1.75,2.8125 -0.5,1.9375 -2.4375,1.5625 -1.75,3.0625 -0.5,2.1875 -0.25,2.6875 -1.25,0.125 -0.75,0.5625 -0.6875,-0.5 0.25,-1.875 L 81,533.25 80.3125,532.625 80.5,529.25 l 1.0625,-1.8125 0.9375,-3.125 0.5625,-3.6875 0.1875,-1.875 0.875,-1.875 0.75,-3.375 1.75,-2.125 1.1875,-2.625 1.375,-3.0625 1,-0.5625 1.0625,-2.75 0.1875,-1.8125 0.125,-2 1.125,-1.0625 2,-0.9375 1.25,-1.5 2.3125,-1.4375 1.4375,-3.25 1.5625,-1 0,2.4375 0.8125,-0.25 0.125,1.625 -1,2.0625 -0.3125,3.0625 -1.6875,2 1.6875,1.375 1.4375,0.3125 0.8125,0.75 -1.5,0.9375 -0.9375,2.3125 -1.5,0.6875 -1.0625,-1.125 L 97.0625,506 97,507.5 l -2.8125,2.3125 -0.375,1.5625 -0.5,1.5625 0.3125,1 -0.625,1 -0.625,3.125 L 91,522.625 z m -9.25,-43.5625 -2.8125,1.6875 0.4375,2.25 -0.5,2.5625 -1,2.1875 -1.4375,1.4375 -1.25,-0.875 -4.0625,-0.8125 -0.5,1.5 1.375,1.4375 0.25,1.75 1.0625,-0.75 1.75,-0.625 0.875,0.5 -0.6875,1.125 -2.25,1.875 -1.625,0.4375 -2.1875,0 -2.0625,1.25 -2.375,0.75 -2.1875,1.5 -0.6875,2.375 -0.5,2.125 -1.1875,0.8125 -1.875,-0.3125 -0.9375,-0.75 1.4375,-4.3125 0.9375,-2.9375 -1,-0.875 -1.625,-0.375 -2.6875,4.1875 -1.625,1.625 0.0625,0.875 -1.5,2.375 -2.9375,0.4375 -1.8125,2.125 0.0625,1.0625 -1.75,0.6875 0.5625,-2.75 -1.4375,-0.1875 -2.125,3.125 -1.375,-0.3125 -0.875,0.625 -2.25,-0.4375 0.125,-1.375 1.5,-2.0625 1.9375,-1.1875 1.5625,-1.875 1.125,-2 1.4375,-1.75 1.1875,-1.0625 -0.4375,-0.8125 -2.5,-0.25 -1.0625,-1.3125 -0.0625,-2.6875 1.75,-2.6875 2.0625,-3.125 0.5,-3.5 0.9375,-1.4375 2.1875,-3.75 L 52.75,475.5 52.875,477.375 55,477 l 0.625,1.875 1.25,0.0625 0.5625,4.5625 2.5,1.5 1.125,-1 -0.625,-7.125 -1.1875,-4.75 -1.375,-3.5625 1.3125,-1.3125 0,-3.4375 0.75,1.125 0.875,1 1.5,-0.1875 -0.625,-1.375 0.75,-1 2.25,-0.3125 1.3125,1.625 1.5,3.3125 1.8125,-1.75 0.6875,-2.1875 2.125,-0.9375 1.1875,2 1.625,-1.4375 1.6875,1.4375 1.4375,0.9375 2,-0.0625 0.75,4.25 -1.625,3.1875 -1.4375,2.75 -0.0625,2.5625 0.8125,0.3125 1.0625,-1.8125 1.75,-1.3125 1.25,1.0625 -0.8125,2.0625 z m -58.5625,32.125 -0.5,0.0625 -0.8125,0.4375 -0.125,0.6875 0.0625,0.6875 -0.1875,0.5 -0.3125,0 -0.625,-0.125 -0.5,0.125 -0.5625,0.625 -0.5,0.625 -0.6875,0.375 -0.5,0.3125 -0.75,0.25 -0.375,0.3125 -0.5,0.3125 -0.625,-0.0625 -0.625,-0.1875 -0.6875,0.875 -0.5,1.125 0.3125,-0.125 0.375,-0.5625 0.5,0.125 0.125,0.5 0.4375,0.5 0.5,0.6875 0.375,0.625 -0.1875,0.5625 -0.375,0.5625 -0.25,0.25 0.375,0.375 0.5,-0.4375 0.25,0.375 0.375,0.1875 0.5,-0.125 0.5,-0.5625 0.4375,-0.6875 0.1875,-0.6875 0.375,-0.5 0.8125,-0.5 0.5625,0.3125 0.6875,0.5 0.4375,0.375 -0.125,0.625 0.5625,0.125 0.5,-0.6875 0.5,-0.3125 0.25,-0.0625 0.6875,-0.0625 0.875,-0.0625 0.25,-0.8125 0.125,-1.1875 -0.0625,-0.9375 0.1875,-0.75 0.3125,-0.8125 -0.1875,-0.625 -0.4375,-0.5625 -0.4375,-0.4375 -0.4375,-0.375 -0.1875,-0.8125 0,-0.8125 -0.875,-0.125 z m 0.25,8.8125 -0.0625,0.625 -0.125,0.625 0.25,-0.0625 0.3125,-0.4375 0.0625,-0.5 -0.4375,-0.25 z m -0.5,0.1875 -0.375,0.75 0.5,0.0625 -0.125,-0.8125 z m -2.0625,0.25 -0.25,0.1875 -0.5,1.1875 -0.3125,0.3125 -0.5,0.125 -1.375,-0.25 -0.375,0.125 -0.3125,0.25 -0.3125,0.625 0,0.4375 0.1875,0.375 0.4375,0.125 1,-0.0625 0.0625,0.375 -0.0625,0.3125 -0.6875,0.0625 -0.25,0.125 -0.125,0.4375 0.0625,0.625 0.125,0.3125 0.1875,0.125 0.4375,0.25 0,0.875 0.125,0.375 0.8125,0 0.25,-0.4375 0.25,-0.5 0.3125,-0.25 0.5625,-0.1875 0.375,-0.25 0,-0.3125 0.25,-0.5625 0.1875,-0.8125 0.5,0.0625 0.0625,0.5625 0.375,0 0.375,-0.3125 0.25,-0.6875 0.0625,-1.125 L 23,522.125 l -0.4375,-0.5 -0.75,0.5 -0.4375,-0.25 0.3125,-0.5 0.125,-0.5 -0.5,-0.375 -0.4375,-0.0625 z m 183.5625,5.125 -1.8125,1.1875 -0.4375,1.875 -1.25,1.0625 -3.5,-0.6875 -1,1.0625 -1.0625,3.125 -1.6875,-3.625 -1.3125,0.75 -1.125,1 -0.4375,1.9375 -1.1875,0.375 -1.375,0.5 -1.3125,1.125 -0.75,2.9375 -1.75,3.5 -1.625,2.375 -1.375,0.625 -1.9375,2.4375 -0.375,1.8125 0.5625,2.25 0.5625,2.4375 0.9375,1.1875 -0.3125,3 -1.25,1.5 -0.3125,1.8125 1.375,0.4375 0,3.5625 0.75,0.6875 1.125,0.8125 -0.3125,2.75 0.5625,0.3125 1.5625,-1.3125 0.3125,1.0625 -0.625,1.375 -1.625,1.0625 -0.1875,1.9375 -1.375,3.25 1.6875,0.125 2.75,-1.9375 1.75,-2.5625 -1.375,-0.5625 -0.125,-3 2.5625,-2 -1,-0.5 3.5,-2.75 0.375,-1 2.8125,-1.0625 0.875,-1.6875 -1.0625,-0.6875 -0.0625,-1.4375 1.6875,-2.75 1.5625,-0.5 1.9375,-0.6875 0.75,-2 -1.5625,-0.375 -1.625,-1.125 -1.125,-2.1875 0.75,-1.4375 0.25,-2.8125 -0.875,-0.5625 0.75,-3.3125 0.1875,-2.5 1.3125,0.875 1.875,-0.125 0.125,-2.875 1.5625,-0.0625 -0.125,-1.75 0.8125,-0.5625 1.5625,-1 0.875,-1.875 -0.5,-1.1875 0.5625,-0.6875 1.5,-0.5625 1.8125,-0.0625 0.6875,-0.8125 -0.4375,-1 -1.375,0.1875 -2.0625,-0.6875 z m -184.375,3.625 -1,0.1875 -0.875,1.1875 0.75,0.5625 1.8125,-0.875 0.375,-1 -1.0625,-0.0625 z m -1.5,5 -0.6875,2.3125 0.4375,0.1875 1.0625,-1.375 -0.8125,-1.125 z m 1.9375,1.75 -0.4375,0.1875 -0.5,0.375 L 19.5,537.375 19.0625,537.3125 19,537.75 l 0.1875,0.1875 -0.0625,0.4375 -0.625,-0.0625 0.0625,0.4375 1.1875,0.9375 0.25,-0.1875 0.1875,-0.5 0,-0.8125 0.3125,-0.875 0.3125,-0.5625 -0.3125,-0.8125 z m 133.0625,21 -1,0.875 -1.375,2 -0.1875,2.3125 -0.25,1.5 -1,0.625 0.3125,1.5625 -0.625,2.375 -1.125,2.4375 -0.75,1.9375 -1,1 -0.8125,2.25 -0.75,2.875 -1.5,0 -1,0.875 -0.875,2.75 -1.3125,2.6875 -1.5625,3.9375 -0.4375,2.4375 -1.3125,2.3125 -0.1875,1.875 0.1875,4.75 0.5,0.25 -0.125,7.375 0.5,0.8125 -0.1875,2.375 1.6875,-1.5 0.8125,-2.625 1.625,-3.9375 -0.375,-1.5625 1.0625,-2.5625 0.75,-2.875 0.1875,-2.125 1.3125,-1.375 -0.1875,-1 L 145,589 l 1.875,-6.875 1.1875,-0.3125 0.6875,-1.6875 -0.0625,-1.4375 0.5625,-1.0625 0.0625,-3.1875 1.375,-1.25 -0.625,-1.5 1,0.0625 0.875,-3.1875 1.25,-2.75 0.625,-0.625 0,-2.8125 -0.375,-1.0625 0.625,-1.5625 1.25,-0.6875 -0.4375,-1.8125 -0.75,0.375 -0.5625,-0.6875 z"/>
    </clipPath>
  </defs>

  <g transform="translate(455 7.5) scale(1.0)">
    <g clip-path="url(#swedenClip)">
      <rect width="290" height="660" fill="#0a1224" fill-opacity="0.6"/>
    </g>
  </g>

  <g transform="translate(492 171) scale(0.6)" filter="url(#rackShadow)">
    <rect width="360" height="555" rx="10" fill="url(#rackEdge)"/>
    <rect x="6" y="6" width="348" height="543" rx="7" fill="url(#rackBody)"/>

    <rect x="20" y="20" width="320" height="78" rx="5" fill="#0a0a0a"/>
    <circle cx="44" cy="59" r="5" fill="url(#ledGreen)"/>
    <circle cx="44" cy="59" r="9" fill="#22d77a" opacity="0.25" filter="url(#ledGlow)"/>
    <circle cx="64" cy="59" r="4" fill="url(#ledBlue)"/>
    <g fill="#2a2a2a">
      <rect x="86" y="44" width="100" height="3" rx="1"/>
      <rect x="86" y="51" width="80" height="3" rx="1"/>
      <rect x="86" y="65" width="120" height="3" rx="1"/>
      <rect x="86" y="72" width="60" height="3" rx="1"/>
    </g>

<g transform="translate(266 39)" filter="url(#stickerShadow)">
      <rect x="0" y="0" width="60" height="40" fill="#006aa7"/>
      <rect x="18.75" y="0" width="7.5" height="40" fill="#fecc00"/>
      <rect x="0" y="16" width="60" height="8" fill="#fecc00"/>
    </g>

    <g transform="translate(20 110)">
      <g>
        <rect x="0" y="0" width="320" height="50" rx="3" fill="url(#serverUnit)"/>
        <rect x="10" y="14" width="80" height="22" rx="2" fill="url(#vent)"/>
        <g fill="#0c0c0c">
          <rect x="14" y="18" width="72" height="2"/>
          <rect x="14" y="22" width="72" height="2"/>
          <rect x="14" y="26" width="72" height="2"/>
          <rect x="14" y="30" width="72" height="2"/>
        </g>
        <rect x="100" y="14" width="48" height="22" rx="2" fill="#1a1a1a"/>
        <rect x="158" y="14" width="48" height="22" rx="2" fill="#1a1a1a"/>
        <circle cx="284" cy="20" r="3" fill="url(#ledGreen)"/>
        <circle cx="298" cy="20" r="3" fill="url(#ledGreen)"/>
        <circle cx="284" cy="32" r="2.5" fill="#3a3a3a"/>
        <circle cx="298" cy="32" r="2.5" fill="#3a3a3a"/>
      </g>
      <g transform="translate(0 56)">
        <rect x="0" y="0" width="320" height="50" rx="3" fill="url(#serverUnit)"/>
        <rect x="10" y="14" width="80" height="22" rx="2" fill="url(#vent)"/>
        <g fill="#0c0c0c">
          <rect x="14" y="18" width="72" height="2"/>
          <rect x="14" y="22" width="72" height="2"/>
          <rect x="14" y="26" width="72" height="2"/>
          <rect x="14" y="30" width="72" height="2"/>
        </g>
        <rect x="100" y="14" width="48" height="22" rx="2" fill="#1a1a1a"/>
        <rect x="158" y="14" width="48" height="22" rx="2" fill="#1a1a1a"/>
        <circle cx="284" cy="20" r="3" fill="url(#ledGreen)"/>
        <circle cx="298" cy="20" r="3" fill="url(#ledGreen)"/>
        <circle cx="284" cy="32" r="2.5" fill="#3a3a3a"/>
        <circle cx="298" cy="32" r="2.5" fill="#3a3a3a"/>
      </g>
      <g transform="translate(0 112)">
        <rect x="0" y="0" width="320" height="50" rx="3" fill="url(#serverUnit)"/>
        <rect x="10" y="14" width="80" height="22" rx="2" fill="url(#vent)"/>
        <g fill="#0c0c0c">
          <rect x="14" y="18" width="72" height="2"/>
          <rect x="14" y="22" width="72" height="2"/>
          <rect x="14" y="26" width="72" height="2"/>
          <rect x="14" y="30" width="72" height="2"/>
        </g>
        <rect x="100" y="14" width="48" height="22" rx="2" fill="#1a1a1a"/>
        <rect x="158" y="14" width="48" height="22" rx="2" fill="#1a1a1a"/>
        <circle cx="284" cy="20" r="3" fill="url(#ledGreen)"/>
        <circle cx="298" cy="20" r="3" fill="url(#ledGreen)"/>
        <circle cx="284" cy="32" r="2.5" fill="#3a3a3a"/>
        <circle cx="298" cy="32" r="2.5" fill="#3a3a3a"/>
      </g>
      <g transform="translate(0 168)">
        <rect x="0" y="0" width="320" height="50" rx="3" fill="url(#serverUnit)"/>
        <rect x="10" y="14" width="80" height="22" rx="2" fill="url(#vent)"/>
        <g fill="#0c0c0c">
          <rect x="14" y="18" width="72" height="2"/>
          <rect x="14" y="22" width="72" height="2"/>
          <rect x="14" y="26" width="72" height="2"/>
          <rect x="14" y="30" width="72" height="2"/>
        </g>
        <rect x="100" y="14" width="48" height="22" rx="2" fill="#1a1a1a"/>
        <rect x="158" y="14" width="48" height="22" rx="2" fill="#1a1a1a"/>
        <circle cx="284" cy="20" r="3" fill="url(#ledGreen)"/>
        <circle cx="298" cy="20" r="3" fill="url(#ledGreen)"/>
        <circle cx="284" cy="32" r="2.5" fill="#3a3a3a"/>
        <circle cx="298" cy="32" r="2.5" fill="#3a3a3a"/>
      </g>
      <g transform="translate(0 224)">
        <rect x="0" y="0" width="320" height="50" rx="3" fill="url(#serverUnit)"/>
        <rect x="10" y="14" width="80" height="22" rx="2" fill="url(#vent)"/>
        <g fill="#0c0c0c">
          <rect x="14" y="18" width="72" height="2"/>
          <rect x="14" y="22" width="72" height="2"/>
          <rect x="14" y="26" width="72" height="2"/>
          <rect x="14" y="30" width="72" height="2"/>
        </g>
        <rect x="100" y="14" width="48" height="22" rx="2" fill="#1a1a1a"/>
        <rect x="158" y="14" width="48" height="22" rx="2" fill="#1a1a1a"/>
        <circle cx="284" cy="20" r="3" fill="url(#ledGreen)"/>
        <circle cx="298" cy="20" r="3" fill="url(#ledGreen)"/>
        <circle cx="284" cy="32" r="2.5" fill="#3a3a3a"/>
        <circle cx="298" cy="32" r="2.5" fill="#3a3a3a"/>
      </g>
      <g transform="translate(0 280)">
        <rect x="0" y="0" width="320" height="50" rx="3" fill="url(#serverUnit)"/>
        <rect x="10" y="14" width="80" height="22" rx="2" fill="url(#vent)"/>
        <g fill="#0c0c0c">
          <rect x="14" y="18" width="72" height="2"/>
          <rect x="14" y="22" width="72" height="2"/>
          <rect x="14" y="26" width="72" height="2"/>
          <rect x="14" y="30" width="72" height="2"/>
        </g>
        <rect x="100" y="14" width="48" height="22" rx="2" fill="#1a1a1a"/>
        <rect x="158" y="14" width="48" height="22" rx="2" fill="#1a1a1a"/>
        <circle cx="284" cy="20" r="3" fill="url(#ledGreen)"/>
        <circle cx="298" cy="20" r="3" fill="url(#ledGreen)"/>
        <circle cx="284" cy="32" r="2.5" fill="#3a3a3a"/>
        <circle cx="298" cy="32" r="2.5" fill="#3a3a3a"/>
      </g>
      <g transform="translate(0 336)">
        <rect x="0" y="0" width="320" height="50" rx="3" fill="url(#serverUnit)"/>
        <rect x="10" y="14" width="80" height="22" rx="2" fill="url(#vent)"/>
        <g fill="#0c0c0c">
          <rect x="14" y="18" width="72" height="2"/>
          <rect x="14" y="22" width="72" height="2"/>
          <rect x="14" y="26" width="72" height="2"/>
          <rect x="14" y="30" width="72" height="2"/>
        </g>
        <rect x="100" y="14" width="48" height="22" rx="2" fill="#1a1a1a"/>
        <rect x="158" y="14" width="48" height="22" rx="2" fill="#1a1a1a"/>
        <circle cx="284" cy="20" r="3" fill="url(#ledGreen)"/>
        <circle cx="298" cy="20" r="3" fill="url(#ledGreen)"/>
        <circle cx="284" cy="32" r="2.5" fill="#3a3a3a"/>
        <circle cx="298" cy="32" r="2.5" fill="#3a3a3a"/>
      </g>
      <g transform="translate(0 392)">
        <rect x="0" y="0" width="320" height="40" rx="3" fill="url(#serverUnit)"/>
        <rect x="10" y="9" width="200" height="22" rx="2" fill="url(#vent)"/>
        <g fill="#0c0c0c">
          <rect x="14" y="13" width="192" height="2"/>
          <rect x="14" y="17" width="192" height="2"/>
          <rect x="14" y="21" width="192" height="2"/>
          <rect x="14" y="25" width="192" height="2"/>
        </g>
        <circle cx="284" cy="20" r="3" fill="url(#ledGreen)"/>
        <circle cx="298" cy="20" r="3" fill="url(#ledGreen)"/>
      </g>
    </g>
  </g>

  <svg id="sthlm-logo-watermark" x="1060" y="620" width="110" height="25" viewBox="0 0 617 143" preserveAspectRatio="xMidYMid meet">
    <g fill="#ffffff" fill-rule="evenodd">
      <path d="M40.1002506,140.69843 C24.1002506,140.69843 8.10025063,133.417969 0.100250627,122.114096 L17.8145363,106.978402 C21.8145363,111.001815 31.1478697,117.899093 40.8621554,117.899093 C48.8621554,117.899093 54.3859649,115.791591 54.3859649,110.23545 C54.3859649,105.445674 49.433584,103.146581 37.8145363,98.7399862 C15.5288221,91.2679345 3.33834586,83.7958829 3.33834586,65.9779135 C3.33834586,48.1599442 19.9097744,38.1972087 39.5288221,38.1972087 C56.6716792,38.1972087 68.481203,45.8608514 76.1002506,54.4824495 L58.1954887,69.2349617 C50.9573935,62.5292743 45.8145363,60.9965458 39.5288221,60.9965458 C32.6716792,60.9965458 28.1002506,63.1040475 28.1002506,67.319051 C28.1002506,71.7256456 37.0526316,75.5574669 47.1478697,78.0481508 C61.6240602,82.8379275 79.1478697,89.735206 79.1478697,110.23545 C79.1478697,129.777739 63.7192982,140.69843 40.1002506,140.69843 Z"/>
      <path d="M116.628308,140.69843 C99.5829912,140.69843 92.4651664,131.118877 92.4651664,113.875681 L92.4651664,64.8283671 L79.3533839,64.8283671 L79.3533839,40.4963015 L92.4651664,40.4963015 L92.4651664,13.2903699 L119.437976,0.0705861829 L119.437976,40.4963015 L140.229517,40.4963015 L140.229517,64.8283671 L119.437976,64.8283671 L119.437976,111.193406 C119.437976,115.025227 122.247644,116.749547 124.87,116.749547 C130.114713,116.749547 135.546737,115.6 141.353384,112.917725 L138.356405,136.291835 C132.175136,139.357293 125.057311,140.69843 116.628308,140.69843 Z"/>
      <g transform="translate(151,1)">
        <path d="M-1.98951966e-13,139.206309 L-1.98951966e-13,13.7141592 L27.6190476,0.87755767 L27.6190476,50.3080532 C33.5238095,43.2191837 42.2857143,39.0041802 54.0952381,39.0041802 C68.952381,39.0041802 87.8095238,47.051005 87.8095238,75.5980742 L87.8095238,139.206309 L60.1904762,139.206309 L60.1904762,86.7103561 C60.1904762,72.341026 56,65.8269297 44.7619048,65.8269297 C34.0952381,65.8269297 27.6190476,71.9578439 27.6190476,86.327174 L27.6190476,139.206309 L-1.98951966e-13,139.206309 Z"/>
      </g>
      <g transform="translate(252,2)">
        <polygon points="0.964912281 138.539777 0.964912281 13.2392185 28.5839599 0.211025839 28.5839599 138.539777"/>
        <path d="M159.110276,138.512116 L159.110276,87.9320746 C159.110276,70.8804695 155.681704,65.1327375 145.205514,65.1327375 C133.015038,65.1327375 129.586466,71.0720606 129.586466,87.1657103 L129.586466,138.512116 L101.967419,138.512116 L101.967419,87.9320746 C101.967419,70.8804695 98.5388471,65.1327375 88.0626566,65.1327375 C76.0626566,65.1327375 72.443609,71.0720606 72.443609,87.1657103 L72.443609,138.512116 L44.8245614,138.512116 L44.8245614,40.6090808 L72.443609,40.6090808 L72.443609,49.613861 C77.5864662,43.2913557 83.6817043,38.309988 94.7293233,38.309988 C107.87218,38.309988 115.110276,43.4829468 119.110276,51.9129538 C126.348371,41.9502183 137.776942,38.309988 149.586466,38.309988 C170.919799,38.309988 186.729323,46.739995 186.729323,77.969339 L186.729323,138.512116 L159.110276,138.512116 Z"/>
        <path d="M210.909496,139.367716 C201.692286,139.367716 194.824561,132.651379 194.824561,123.575247 C194.824561,114.680639 201.692286,107.419733 210.909496,107.419733 C220.126706,107.419733 227.35589,114.680639 227.35589,123.575247 C227.35589,132.651379 220.126706,139.367716 210.909496,139.367716 Z"/>
        <path d="M236.052632,138.985068 L236.052632,53.5253684 L263.671679,41.0820327 L263.671679,138.985068 L236.052632,138.985068 Z M236,26.9201287 L263.622807,13 L263.622807,40.62 L236,26.9201287 Z"/>
        <path d="M322.680085,141 C296.567797,141 280,121.940187 280,89.5962617 C280,57.8299065 296.567797,38 322.680085,38 C348.612288,38 365,57.8299065 365,89.5962617 C365,121.940187 348.612288,141 322.680085,141 Z M322.681319,114 C333.016484,114 339,104.968627 339,89.5960784 C339,74.2235294 333.016484,65 322.681319,65 C312.527473,65 306,74.2235294 306,89.5960784 C306,104.968627 312.527473,114 322.681319,114 Z"/>
      </g>
    </g>
  </svg>
</svg>
