<svg fill="none" viewBox="0 0 482 134" xmlns="http://www.w3.org/2000/svg">
  <path d="M464.311 70.1961L456.658 68.2059C453.333 67.3416 451.59 65.7334 451.59 63.5021C451.59 61.0295 453.934 59.2807 457.279 59.2807C461.105 59.2807 465.072 62.2558 466.915 66.839L481.619 59.0394C477.673 50.6167 467.917 44.7871 457.419 44.7871C443.456 44.7871 433.82 53.0892 433.82 64.6077C433.82 74.3974 439.63 80.7295 451.229 83.4433L458.401 85.1721C462.107 86.0364 463.95 87.6446 463.95 89.7553C463.95 92.7304 461.366 94.4592 457.54 94.4592C452.972 94.4592 448.524 91.2428 446.181 86.157L431.596 94.218C435.683 103.646 445.179 109.214 457.419 109.214C471.623 109.214 482 100.53 482 88.2678C481.98 79.4832 475.81 73.1712 464.311 70.1961Z" fill="black"/>
  <path d="M271.951 44.7871C253.18 44.7871 238.856 58.7781 238.856 77.0106C238.856 95.223 253.18 109.234 271.951 109.234C290.723 109.234 305.046 95.223 305.046 77.0106C305.046 58.7781 290.723 44.7871 271.951 44.7871ZM271.951 92.7304C263.557 92.7304 256.646 85.7952 256.646 76.9905C256.646 68.1858 263.557 61.2507 271.951 61.2507C280.345 61.2507 287.257 68.1858 287.257 76.9905C287.277 85.7952 280.345 92.7304 271.951 92.7304Z" fill="black"/>
  <path d="M210.73 54.3147C206.403 47.9826 198.99 44.8868 190.977 44.8868C174.67 44.8868 162.069 58.8979 162.069 76.9897C162.069 95.2021 174.67 109.093 190.977 109.093C199.01 109.093 206.403 105.756 210.73 99.4236V107.605H228.64V24.8652H210.73V54.3147ZM195.665 92.8704C186.89 92.8704 179.979 85.8145 179.979 77.0098C179.979 68.2052 186.89 61.1494 195.665 61.1494C204.439 61.1494 211.351 68.2052 211.351 77.0098C211.351 85.8145 204.419 92.8704 195.665 92.8704Z" fill="black"/>
  <path d="M406.395 56.4252V46.3943H388.605V107.605H406.515V82.6986C406.515 70.6776 412.445 63.2398 422.441 63.2398C424.545 63.2398 426.027 63.481 427.009 63.9836V45.3892C426.628 45.2686 425.286 45.0273 423.924 45.0273C416.031 45.0273 409.72 49.3694 406.395 56.4252Z" fill="black"/>
  <path d="M345.293 44.7871C326.522 44.7871 312.198 58.7781 312.198 77.0106C312.198 95.223 326.522 109.234 345.293 109.234C364.064 109.234 378.388 95.223 378.388 77.0106C378.388 58.7781 364.064 44.7871 345.293 44.7871ZM345.293 92.7304C336.899 92.7304 329.968 85.7952 329.968 76.9905C329.968 68.1858 336.879 61.2507 345.293 61.2507C353.687 61.2507 360.599 68.1858 360.599 76.9905C360.599 85.7952 353.687 92.7304 345.293 92.7304Z" fill="black"/>
  <path d="M66.7385 0C29.8751 0 0 29.9922 0 67C0 104.008 29.8751 134 66.7385 134C103.602 134 133.477 104.008 133.477 67C133.477 29.9922 103.602 0 66.7385 0ZM88.0435 104.993H45.4535V29.0072H88.0235L88.0435 104.993Z" fill="black"/>
</svg>
