<svg id="Lag_1" xmlns="http://www.w3.org/2000/svg" viewBox="0 7 370.69 174">
  <defs>
    <style>
      .cls-1 {
      fill: #1d1d1b;
      }
    </style>
  </defs>
  <g>
    <path class="cls-1" d="M195,170.94c0,4.96,2.15,9.11,8.18,9.11s8.19-4.14,8.19-9.11-2.16-9.11-8.19-9.11-8.18,4.14-8.18,9.11M190.62,170.94c0-7.06,6.87-10.44,12.56-10.44s12.57,3.38,12.57,10.44-6.88,10.44-12.57,10.44-12.56-3.38-12.56-10.44"></path>
    <polygon class="cls-1" points="179.56 160.97 171.07 176.2 163.37 160.97 160.11 160.97 156.83 179.47 153.37 180.12 153.37 180.89 161.98 180.89 161.98 180.12 158.73 179.47 161.29 164.89 169.41 180.89 170.51 180.89 179.27 164.83 181.65 179.47 178.17 180.12 178.17 180.89 189.42 180.89 189.42 180.12 185.75 179.47 182.35 160.97 179.56 160.97"></polygon>
    <polygon class="cls-1" points="220.67 160.73 220.67 179.47 217.38 180.12 217.37 180.89 226.23 180.89 226.23 180.12 222.43 179.47 222.43 165.39 239.28 181.13 241 181.13 241 162.4 243.89 161.75 243.89 160.97 235.55 160.97 235.55 161.75 239.23 162.4 239.23 175.99 223.06 160.73 220.67 160.73"></polygon>
    <path class="cls-1" d="M112.23,179.69v-8.53h12.51v-1.37h-12.51v-7.67h.56c3.71,0,12.05,1.12,12.05,1.12v-2.28h-20.1v.78l3.56.64v17.07l-3.56.65v.77h20.4v-2.51s-9.56,1.31-12.05,1.31h-.85Z"></path>
    <path class="cls-1" d="M142.32,171.71v.77l3.85.8v6.29c-1.22.27-2.68.46-4.96.46-5.66,0-8.59-3.54-8.59-8.91,0-7.14,4.01-9.27,8.74-9.27,3.22,0,6.46,1.18,8.14,2.15l.77-2.38c-2.48-.65-5.88-1.15-9.27-1.15-5.22,0-12.79,2.66-12.79,10.83,0,6.46,6.21,10.1,12.99,10.1,2.89,0,4.82-.25,8.78-1.06v-7.07l3.1-.8v-.77h-10.77Z"></path>
    <path class="cls-1" d="M265.95,160.97v2.32s-5.24-1.12-7.78-1.12h-.68v17.3l3.69.65v.77h-11.26v-.77l3.67-.65v-17.3h-.67c-2.54,0-7.78,1.12-7.78,1.12v-2.32h20.82Z"></path>
  </g>
  <path class="cls-1" d="M86.51,22.59c10.84,0,23.37,3.68,24.07,16.51h-18.2c-.3-3.48-1.99-6.17-6.17-6.17-3.08,0-5.27,1.69-5.27,3.78,0,2.49,1.69,3.88,5.87,4.77l9.45,1.99c9.85,2.09,15.42,5.97,15.42,14.52,0,13.03-13.92,17.01-24.66,17.01-12.13,0-25.76-3.18-25.76-17.7h18.5c.2,4.67,2.78,7.16,7.36,7.16,3.78,0,6.17-1.69,6.17-4.18s-1.79-3.88-6.76-4.87l-7.76-1.49c-10.54-1.99-16.21-6.76-16.21-15.12,0-12.73,14.02-16.21,23.97-16.21Z"></path>
  <path class="cls-1" d="M127.81,36.61l-10.2.19v-12.63l10.2-.19v-8.95l19.39-7.26v16.21h14.88v12.63h-14.88v17.8c0,4.77,2.86,6.76,7.64,6.76,1.69,0,6.75-.61,7.64-.71v12.63c-3.18.6-9.32,1.31-12.8,1.31-13.03,0-21.87-4.08-21.87-16.91v-20.89Z"></path>
  <path class="cls-1" d="M227.5,48.65c0,15.52-10.84,26.36-28.24,26.36s-28.25-10.74-28.25-26.36,10.54-26.06,28.25-26.06,28.24,10.74,28.24,26.06ZM191.1,48.65c0,9.65,2.69,14.22,8.16,14.22s8.16-4.58,8.16-14.22-2.78-13.92-8.16-13.92-8.16,4.58-8.16,13.92Z"></path>
  <path class="cls-1" d="M284.09,23.49v16.21c-.9-.2-4.42-.4-6.61-.4-9.85,0-19.96,4.97-19.96,15.61v18.7h-19.79v-34.61c0-4.58-.1-8.95-.3-15.02h19.29l.3,8.65c2.39-5.67,12.6-9.35,20.95-9.35,1.29,0,5.62.1,6.11.2Z"></path>
  <path class="cls-1" d="M51.76,141v-29.54c0-5.97-1.99-9.05-6.66-9.05-5.37,0-7.46,4.28-7.46,11.74v26.85h-19.79V23.98h19.69v74.25c2.98-5.07,8.25-8.25,16.41-8.25,11.04,0,17.6,6.27,17.6,18.2v32.82h-19.79Z"></path>
  <path class="cls-1" d="M314.93,23.85v26.85c0,7.46,4.24,11.74,8.91,11.74,5.37,0,9.21-4.28,9.21-11.74v-26.85h19.79v117.15h-19.69v-74.39c-2.98,5.07-10.47,8.24-18.62,8.24-11.04,0-19.39-6.25-19.39-18.19V23.85h19.79Z"></path>
  <path class="cls-1" d="M135.7,116.04c0,15.52-10.84,26.36-28.24,26.36s-28.25-10.74-28.25-26.36,10.54-26.06,28.25-26.06,28.24,10.74,28.24,26.06ZM99.3,116.04c0,9.65,2.69,14.22,8.16,14.22s8.16-4.58,8.16-14.22-2.78-13.92-8.16-13.92-8.16,4.57-8.16,13.92Z"></path>
  <path class="cls-1" d="M163.25,91.37v29.54c0,5.97,1.99,9.05,6.56,9.05,5.37,0,7.46-4.28,7.46-11.74v-26.85h19.79v34.61c0,4.18.1,9.05.3,15.02h-19.29l-.3-6.86c-3.08,5.07-8.25,8.25-16.71,8.25-10.94,0-17.6-6.27-17.6-18.2v-32.82h19.79Z"></path>
  <path class="cls-1" d="M229.89,89.98c10.84,0,23.37,3.68,24.07,16.51h-18.2c-.3-3.48-1.99-6.17-6.17-6.17-3.08,0-5.27,1.69-5.27,3.78,0,2.49,1.69,3.88,5.87,4.77l9.45,1.99c9.85,2.09,15.42,5.97,15.42,14.52,0,13.03-13.92,17.01-24.66,17.01-12.13,0-25.76-3.18-25.76-17.7h18.5c.2,4.67,2.78,7.16,7.36,7.16,3.78,0,6.17-1.69,6.17-4.18s-1.79-3.88-6.76-4.87l-7.76-1.49c-10.54-1.99-16.21-6.76-16.21-15.12,0-12.73,14.02-16.21,23.97-16.21Z"></path>
  <path class="cls-1" d="M313.13,124.89c-1.99,11.04-11.44,17.41-26.16,17.41-16.61,0-26.85-9.45-26.85-26.16s11.44-26.16,27.25-26.16c18.1,0,26.16,10.14,26.16,26.75,0,.7,0,1.49-.2,3.18h-33.81c.1,7.36,2.88,11.24,7.66,11.24,3.78,0,5.97-1.89,6.96-6.27h19ZM294.73,110.47c-.4-6.46-2.78-9.55-7.46-9.55s-7.26,3.38-7.66,9.55h15.12Z"></path>
</svg>
