<svg xmlns="http://www.w3.org/2000/svg" width="1200" height="500" viewBox="0 0 1200 500"><style type="text/css">.st0{fill:#2E4B64;}</style><path class="st0" d="M289.5 163.2l-7.5 20.1-6 1.3c-12.1-13.6-22.9-22.5-32.2-26.6-11.9-5.3-25.5-7.9-40.9-8.1-12.3 0-23.6 1.8-33.9 5.2-18.1 6.3-32.8 16.2-44.1 29.8-10.4 12.4-18.3 27.1-23.8 44.2-6.4 18.7-9.5 37.7-9.4 56.8-.3 25.2 6.1 45.2 18.9 59.7 12.9 14.6 32.1 21.8 57.6 21.8 8.3 0 14.9-.6 19.9-1.7l10.9-3.6 4.1-13.5c6.4-23.7 10.2-43.2 11.6-58.5l.9-18 29.8.9 33-.9-6.4 20.1c-1.9 6.1-4.2 16.1-6.9 29.8-4.3 19.9-7 34-8.3 42.4l-2.2 15.9-9.9 3.4c-23 7.5-47.7 11.3-74.1 11.4-18 .1-35.1-1.9-51.4-6-28-6.8-49.7-19.1-65.2-37.1-14.2-17-21.9-41.6-23.1-73.7-.3-35.6 9.3-66.7 28.7-93.2 19.7-27 45.4-45.2 77.1-54.6 19.5-5.7 40.4-8.6 62.8-8.6 15.2 0 29.4 1.3 42.4 3.8 13 2.6 25.7 6.7 38.2 12.3l17.3 8.6-7.9 16.6zM302.7 375.2l7.7-30.9 17.6-72.2c2.7-11.5 7.5-34.7 14.2-69.7 5.2-27.4 8.9-47.7 10.9-61.1l3.4-24.6 1.5-12 29.1.9 31.7-.9-3.7 12.7-6.2 24.6-13.5 60.7-15 69.9c-11.1 54.1-17.4 88.5-18.9 103.1l-1.1 15-29.2-.9-34.1.9 5.6-15.5zM467.7 329.7c-.1 7 1.1 13.1 3.8 18.4 3.2 7.4 9.4 13.7 18.4 18.9 7.9 4.8 16.4 7.1 25.5 7.1 8.9 0 17.1-2.1 24.7-6.4l9.8-6 6.9 5.4-13.1 21.2-17.1 4.3c-7.9 1.7-16.1 2.6-24.6 2.6-18.6-.1-35.4-4.5-50.2-13.1-16.5-9.5-27.8-22.4-33.9-38.6-3.6-9-5.4-19-5.2-30 0-15.4 2.7-30.6 8.2-45.7 4.9-13.6 11.7-25.6 20.5-35.9 8.8-10.3 19.3-17.8 31.4-22.6 11.2-4.4 23.4-6.6 36.4-6.6 25.9 0 45.2 7.6 58.1 22.9 6.6 7.9 11.2 16.8 13.7 26.8 2.1 8.5 3.2 17.3 3.2 26.4 0 7.2-.6 14.1-1.7 20.4l-2.6 12.2-12.2-1.9-20.4-.6-20.4-.6h-57.2c-1.4 8.9-2 16-2 21.4zm5.6-43.5h55.3l3.2-18c.9-6.6 1.4-12.9 1.5-18.7.3-17-6.7-25.5-21-25.5-17.6.3-29.6 15.4-36 45.6l-3 16.6zM605.9 339.8l7.9-23.1 9 1.1c.7 6.1 1.8 11.4 3.2 15.7 3 10.9 9.3 19.4 18.9 25.5 9 5.7 19.2 8.6 30.8 8.4 11.5 0 20.8-3 27.9-9 8-6.6 12.1-15.4 12.4-26.4-.3-14-7-26.2-20.2-36.7l-31.1-25.5c-8.2-6.5-15.4-13.6-21.4-21.4-10.4-13.2-15.6-28.4-15.6-45.4 0-23.6 7.7-43 23.1-58.1 15.4-15.1 34.9-22.7 58.7-22.9 25.5.3 48.1 8.8 67.9 25.7l7.9 7.1-10.9 19.1-9.2 18.2-6.4-2.3c-5.6-26.6-20.7-40-45.4-40.1-9.8-.1-18 3.1-24.7 9.6-7.6 7.4-11.3 15.4-11.1 24 .2 11.4 8.3 23.9 24.2 37.5l29.6 25.5c8.5 7.4 15.6 14.9 21.2 22.5 4.1 5.6 7.3 12.1 9.7 19.5 2.3 7.4 3.5 15.1 3.7 23.1 0 10.9-2.1 21.4-6.4 31.7-14.5 34.6-41.9 52-82.1 52.1-10.4.1-20.1-1.1-29.2-3.7-12.3-3.1-26.3-9.6-42-19.5l-11.1-7.5c5-10.8 8.6-19.1 10.7-24.7zM831.8 369.4c2.5-9 5.2-20.2 8.2-33.7 2.9-13.4 5.2-25 6.8-34.6l3-19.7-8.4-27-12.9-37.1-15.2-43.1-11.1-27.7-8.4-19.9 35.8.9 34.9-.9 3.7 18 6.6 28.5 10.7 40.1 10.3 37.1c12.9-18.5 21.3-30.9 25.3-37.1l24.6-39.6 18.6-29.1 10.3-18 24.6.9 24.9-.9-18.4 20.1c-7 7.8-14.4 16.8-22.1 27l-30.4 40.7-27.4 37.7-16.5 24.6-5.1 22.7-6.7 32.1c-2.4 12.6-4.4 25.9-6.2 39.9l-2.3 19.5-30-.9-33.4.9 6.2-21.4zM991.8 339.8l7.9-23.1 9 1.1c.7 6.1 1.8 11.4 3.2 15.7 3 10.9 9.3 19.4 18.9 25.5 9 5.7 19.2 8.6 30.7 8.4 11.5 0 20.8-3 27.9-9 8-6.6 12.1-15.4 12.4-26.4-.2-14-7-26.2-20.2-36.7l-31.1-25.5c-8.2-6.5-15.4-13.6-21.4-21.4-10.4-13.2-15.6-28.4-15.6-45.4 0-23.6 7.7-43 23.1-58.1 15.4-15.1 34.9-22.7 58.7-22.9 25.5.3 48.1 8.8 67.9 25.7l7.9 7.1-10.9 19.1-9.2 18.2-6.4-2.3c-5.6-26.6-20.8-40-45.4-40.1-9.7-.1-18 3.1-24.7 9.6-7.6 7.4-11.3 15.4-11.1 24 .3 11.4 8.3 23.9 24.2 37.5l29.6 25.5c8.5 7.4 15.6 14.9 21.2 22.5 4.1 5.6 7.3 12.1 9.7 19.5 2.3 7.4 3.5 15.1 3.7 23.1 0 10.9-2.1 21.4-6.4 31.7-14.5 34.6-41.9 52-82.1 52.1-10.4.1-20.1-1.1-29.2-3.7-12.3-3.1-26.2-9.6-42-19.5l-11.1-7.5c5-10.8 8.6-19.1 10.8-24.7z"/></svg>