<svg id="Layer_1" data-name="Layer 1" xmlns="http://www.w3.org/2000/svg" viewBox="0 0 1301.96 300"><defs><style>.cls-1{fill:#fe8c00;}</style></defs><title>Ving_logo_primary_orange_RGB</title><path class="cls-1" d="M331.85,394.48l36.9,95.92,75,195.11H421.4L386.33,594.7,309,394.48Zm261.49,0-113.28,291H462.6l-111.94-291h23.28l77,202.83,77.46-202.83h22.83L461.7,628.65l9,24.18,99.4-258.35Z" transform="translate(-309.02 -390)"/><path class="cls-1" d="M622.45,394.48h21.49v291H622.45v-291Zm38.95,0h21.5v291H661.4v-291Z" transform="translate(-309.02 -390)"/><path class="cls-1" d="M736.63,394.47h16.12l201.48,291H929.16L797.07,493.43V685.51H775.58V459.85l-17.46-24.63V685.51H736.63Zm37.61,0h25.07l132.54,193v-193h21.49V620.59l17.46,24.62V394.47h21.49v291H975.73Z" transform="translate(-309.02 -390)"/><path class="cls-1" d="M1031.26,540c0-85.08,62.68-150,149.1-150,53.28,0,105.22,28.21,128.05,80.59l-20.14,8.06c-18.81-44.77-60.45-68.5-107.91-68-78.36.89-127.16,57.31-127.16,129.4,0,73.87,51.49,129.4,128.5,129.4,66.27,0,104.77-41.65,111-85.52h-17.46c-6.72,35.82-39.4,68-93.58,69-66.27.89-111-47.46-111-112.83,0-67.17,44.77-112.84,109.7-112.84,41.64,0,76.12,21.49,92.23,59.11l-20.14,8.5c-10.75-28.66-37.62-47-72.09-47-54.18,0-87.76,41.19-87.76,92.24,0,51.93,31.79,92.23,89.1,92.23,41.19,0,65.37-21.94,71.19-48.35H1181.7v-20.6H1316v5.82c0,58.65-52.84,120-134.33,120.89C1093.94,690.89,1031.26,626,1031.26,540Zm150.44-13.88H1316v20.59H1181.7Z" transform="translate(-309.02 -390)"/><path class="cls-1" d="M1572.25,409.49c-18.73,7.1-31,12.17-43.9,15.05-2.36.54-4.63,1-6.8,1.37a82.47,82.47,0,0,1-10.78,1.39c-9.06.63-15.86-.51-20.84-3.44l-.1-.05c-.26-.16-.51-.33-.76-.5a14,14,0,0,1-5.84-11.58v-1.79c0-.11,0-.21,0-.32v0a19.25,19.25,0,0,0-.73-5.23,18.55,18.55,0,0,0-7.39-10.21c-.28-.18-.56-.36-.85-.53-7.8-4.59-20-4.81-38.44-.68-12.89,2.88-28.93,7.94-47.67,15-12,4.55-23.46,9.31-33.16,13.49V443c10.18-4.43,22.59-9.62,35.6-14.55,18.74-7.1,34.77-12.16,47.68-15.05q3.54-.8,6.8-1.38a83.92,83.92,0,0,1,10.78-1.38c9.06-.63,15.87.51,20.85,3.45a.26.26,0,0,0,.09.05c.25.15.49.31.73.47a13.54,13.54,0,0,1,5.71,11.06v0c0,.06,0,.11,0,.17v1.86a21.47,21.47,0,0,0,1.25,6.92,18.37,18.37,0,0,0,7,9.12c.3.19.6.38.91.56,7.79,4.59,20,4.81,38.43.69,12.9-2.89,25.16-8,43.9-15.05,8-3.05,17.75-6.93,26.19-10.41L1611,393.58C1600,398.48,1588.36,403.39,1572.25,409.49Z" transform="translate(-309.02 -390)"/><path class="cls-1" d="M1572.26,448.45c-18.73,7.1-31,12.16-43.9,15.05q-3.55.79-6.8,1.37a82.47,82.47,0,0,1-10.78,1.39c-9.07.62-15.87-.51-20.85-3.45l-.09-.05c-.26-.15-.52-.32-.77-.49a14,14,0,0,1-5.84-11.58v-1.8c0-.1,0-.21,0-.31v0a18.82,18.82,0,0,0-.73-5.23,18.5,18.5,0,0,0-7.39-10.21c-.28-.19-.56-.37-.85-.53-7.79-4.6-20-4.81-38.43-.69-12.9,2.89-28.94,7.95-47.68,15.05-12,4.55-23.46,9.3-33.16,13.49v21.49c10.18-4.43,22.59-9.62,35.6-14.55,18.74-7.1,34.78-12.16,47.68-15.05,2.37-.53,4.63-1,6.8-1.38a84.14,84.14,0,0,1,10.78-1.38c9.06-.63,15.87.51,20.85,3.45l.09.05c.25.15.49.3.73.47a13.54,13.54,0,0,1,5.71,11.06v0c0,.05,0,.11,0,.16v1.86a21.17,21.17,0,0,0,1.26,6.92,18.31,18.31,0,0,0,7,9.12c.3.2.6.39.91.57,7.79,4.59,20,4.81,38.43.69,12.9-2.89,25.16-7.95,43.9-15.06,2.6-1,5.37-2.05,8.21-3.17l9.86-25.35C1586.68,442.87,1580,445.52,1572.26,448.45Z" transform="translate(-309.02 -390)"/></svg>