<?xml version="1.0" encoding="UTF-8"?>
<svg version="1.1" viewBox="0 0 470 227" xmlns="http://www.w3.org/2000/svg" xmlns:cc="http://creativecommons.org/ns#" xmlns:dc="http://purl.org/dc/elements/1.1/" xmlns:rdf="http://www.w3.org/1999/02/22-rdf-syntax-ns#">
 <metadata>
  <rdf:RDF>
   <cc:Work rdf:about="">
    <dc:format>image/svg+xml</dc:format>
    <dc:type rdf:resource="http://purl.org/dc/dcmitype/StillImage"/>
    <dc:title>OpenStack_Logo2016</dc:title>
   </cc:Work>
  </rdf:RDF>
 </metadata>
 <!-- Generator: Sketch 41.1 (35376) - http://www.bohemiancoding.com/sketch -->
 <title>OpenStack_Logo2016</title>
 <desc>Created with Sketch.</desc>
 <g fill="none" fill-rule="evenodd">
  <g fill="#4d453f">
   <path d="m462 209c-2.9 0-5.25-2.36-5.25-5.25 0-2.9 2.36-5.25 5.25-5.25s5.25 2.36 5.25 5.25c0 2.9-2.36 5.25-5.25 5.25m6.96-5.25c0-3.84-3.12-6.96-6.96-6.96s-6.96 3.12-6.96 6.96 3.12 6.96 6.96 6.96 6.96-3.12 6.96-6.96"/>
   <path d="m464 202c0 0.614-0.39 1.02-1.11 1.02h-1.04v-2.06h1.01c0.722 0 1.14 0.342 1.14 1.02zm1.42-0.039v-0.039c0-0.673-0.205-1.21-0.576-1.58-0.429-0.428-1.06-0.652-1.85-0.652h-2.56v6.82h1.41v-2.24h0.886l1.26 2.24h1.62l-1.45-2.54c0.751-0.331 1.27-0.984 1.27-2.02z"/>
   <path d="m11.9 183v-0.629c0-10.4 5.35-18 13.6-18 8.08 0 13.9 7.76 13.9 18.2v0.63c0 10.4-5.35 18.2-13.6 18.2-8.08 0-13.9-7.87-13.9-18.3m39.3 0.209v-0.945c0-16.5-10.8-28.4-25.5-28.4-14.8 0-25.7 12.2-25.7 28.5v0.943c0 16.5 10.8 28.3 25.5 28.3 14.8 0 25.7-12.1 25.7-28.4"/>
   <path d="m69.6 183v-1.05c0-10.9 6.09-17.8 13.2-17.8s12.9 6.82 12.9 17.9v0.945c0 11.1-5.67 17.8-12.9 17.8-7.14 0-13.2-6.93-13.2-17.8m38.1 0.211v-1.47c0-18.8-10.5-28.1-21.6-28.1-7.98 0-12.8 4.62-16.3 9.97v-8.92h-11.9v71.5h11.9v-24.2c3.36 4.93 8.18 9.44 16.3 9.44 11.2 0 21.6-9.44 21.6-28.1"/>
   <path d="m138 164c6.92 0 10.9 6.4 11.5 15.2h-23.5c0.84-9.44 5.46-15.2 12-15.2m21.2 39.2-6.19-7.35c-3.67 3.57-7.56 5.88-12.8 5.88-7.24 0-13-5.04-14.1-14.4h34.8c0.105-1.68 0.105-3.36 0.105-4.09 0-16.7-7.97-29.3-23.1-29.3-13.6 0-23.7 12-23.7 28.6v0.838c0 17.4 11.1 28.3 25.4 28.3 8.29 0 14.5-3.25 19.5-8.6"/>
   <path d="m196 154c-7.56 0-12.1 4.3-15.2 9.23v-8.18h-11.9v55.6h11.9v-33.7c0-7.66 4.3-12.3 10.5-12.3 6.3 0 9.97 4.3 9.97 12.1v33.9h11.9v-37.2c0-11.9-6.4-19.4-17.1-19.4"/>
   <path d="m261 195v-0.105c0-8.71-6.51-12.7-15.1-16.6-6.51-2.94-10.9-4.83-10.9-8.5v-0.211c0-3.04 2.62-5.46 7.03-5.46s9.02 2.1 13.2 4.93l5.04-8.71c-5.25-3.78-11.9-5.98-18-5.98-10.4 0-18.4 6.3-18.4 16.3v0.211c0 9.13 6.92 12.9 15.2 16.5 6.61 2.83 10.9 4.62 10.9 8.6v0.104c0 3.46-2.83 6.09-7.76 6.09-4.93 0-10.3-2.41-15.3-6.5l-5.56 8.5c6.4 5.35 14.1 7.76 20.7 7.76 10.7 0 19-5.98 19-16.9"/>
   <path d="m297 209v-9.76c-1.99 1.05-4.09 1.57-6.4 1.57-3.78 0-5.98-1.78-5.98-6.09v-29.6h12.5v-10.2h-12.5v-15h-11.9v15h-6.09l1.95 10.2h4.14v32c0 10.8 6.19 14.3 14.4 14.3 3.99 0 7.13-0.945 9.86-2.41"/>
   <path d="m337 192c0 6.3-5.25 10.9-12.1 10.8-5.14-0.105-9.02-3.25-9.02-8.81v-0.211c0-5.88 3.99-9.34 10.8-9.34 3.99 0 7.56 0.841 10.3 1.99zm5.88-31.9c-3.57-3.67-9.13-5.67-16.4-5.67-7.45 0-13 1.78-18.4 4.41l3.36 9.44c3.67-1.68 8.08-3.36 13.4-3.36 7.56 0 12 3.88 12 11.3v2.31c-3.78-1.26-7.55-2.2-12.8-2.2-11.8 0-19.7 5.88-19.7 17.8v0.525c0 10.8 7.76 17 17 17 7.24 0 12.2-3.15 15.4-7.87v6.82h11.6v-34.5c0-6.92-1.89-12.4-5.56-16.1z"/>
   <path d="m399 203-6.4-7.87c-3.25 3.25-6.51 5.67-11.3 5.67-8.08 0-13.7-7.24-13.7-18v-0.525c0-10.5 5.66-17.9 13.4-17.9 5.04 0 8.29 2.52 11.2 5.56l6.61-8.71c-4.62-4.62-9.86-7.56-17.8-7.56-14.6 0-25.4 12-25.4 28.5v1.05c0 16.6 10.5 28.2 25 28.2 8.5 0 14.1-3.46 18.5-8.39"/>
   <polygon points="452 211 435 182 427 191 438 211"/>
   <polygon points="406 135 406 211 418 211 418 195 451 155 437 155 418 179 418 135"/>
  </g>
  <path d="m274 2e-4h-94.6c-5.94 0-10.8 4.86-10.8 10.8v25.4h26.2v-4.16c0-3.23 2.62-5.84 5.84-5.84h52.1c3.23 0 5.84 2.62 5.84 5.84v4.16h26.2v-25.4c0-5.94-4.86-10.8-10.8-10.8z" fill="#ed1844"/>
  <path d="m259 81.7c0 3.23-2.62 5.84-5.84 5.84h-52.1c-3.23 0-5.84-2.62-5.84-5.84v-4.16h-26.2v25.4c0 5.94 4.86 10.8 10.8 10.8h94.6c5.94 0 10.8-4.86 10.8-10.8v-25.4h-26.2z" fill="#ed1844"/>
  <polygon points="0 -1.14e-13 0 226 469 226 469 -1.14e-13"/>
  <polygon points="169 43.8 169 70 195 70 195 43.8" fill="#ed1844"/>
  <polygon points="259 43.8 259 70 285 70 285 43.8" fill="#ed1844"/>
 </g>
</svg>
