<?xml version="1.0" encoding="UTF-8"?>
<svg width="617px" height="143px" viewBox="0 0 617 143" version="1.1" xmlns="http://www.w3.org/2000/svg" xmlns:xlink="http://www.w3.org/1999/xlink">
    <!-- Generator: Sketch 53.2 (72643) - https://sketchapp.com -->
    <title>Group 2</title>
    <desc>Created with Sketch.</desc>
    <g id="design" stroke="none" stroke-width="1" fill="none" fill-rule="evenodd">
        <g id="logo-groups" transform="translate(-398.000000, -1188.000000)" fill="#413AFF">
            <g id="Group-2" transform="translate(398.000000, 1188.000000)">
                <g id="st-copy">
                    <path d="M40.1002506,140.69843 C24.1002506,140.69843 8.10025063,133.417969 0.100250627,122.114096 L17.8145363,106.978402 C21.8145363,111.001815 31.1478697,117.899093 40.8621554,117.899093 C48.8621554,117.899093 54.3859649,115.791591 54.3859649,110.23545 C54.3859649,105.445674 49.433584,103.146581 37.8145363,98.7399862 C15.5288221,91.2679345 3.33834586,83.7958829 3.33834586,65.9779135 C3.33834586,48.1599442 19.9097744,38.1972087 39.5288221,38.1972087 C56.6716792,38.1972087 68.481203,45.8608514 76.1002506,54.4824495 L58.1954887,69.2349617 C50.9573935,62.5292743 45.8145363,60.9965458 39.5288221,60.9965458 C32.6716792,60.9965458 28.1002506,63.1040475 28.1002506,67.319051 C28.1002506,71.7256456 37.0526316,75.5574669 47.1478697,78.0481508 C61.6240602,82.8379275 79.1478697,89.735206 79.1478697,110.23545 C79.1478697,129.777739 63.7192982,140.69843 40.1002506,140.69843 Z" id="Path"></path>
                    <path d="M116.628308,140.69843 C99.5829912,140.69843 92.4651664,131.118877 92.4651664,113.875681 L92.4651664,64.8283671 L79.3533839,64.8283671 L79.3533839,40.4963015 L92.4651664,40.4963015 L92.4651664,13.2903699 L119.437976,0.0705861829 L119.437976,40.4963015 L140.229517,40.4963015 L140.229517,64.8283671 L119.437976,64.8283671 L119.437976,111.193406 C119.437976,115.025227 122.247644,116.749547 124.87,116.749547 C130.114713,116.749547 135.546737,115.6 141.353384,112.917725 L138.356405,136.291835 C132.175136,139.357293 125.057311,140.69843 116.628308,140.69843 Z" id="Path"></path>
                </g>
                <g id="h-copy" transform="translate(151.000000, 1.000000)">
                    <path d="M-1.98951966e-13,139.206309 L-1.98951966e-13,13.7141592 L27.6190476,0.87755767 L27.6190476,50.3080532 C33.5238095,43.2191837 42.2857143,39.0041802 54.0952381,39.0041802 C68.952381,39.0041802 87.8095238,47.051005 87.8095238,75.5980742 L87.8095238,139.206309 L60.1904762,139.206309 L60.1904762,86.7103561 C60.1904762,72.341026 56,65.8269297 44.7619048,65.8269297 C34.0952381,65.8269297 27.6190476,71.9578439 27.6190476,86.327174 L27.6190476,139.206309 L-1.98951966e-13,139.206309 Z" id="Path"></path>
                </g>
                <g id="lm.io-copy" transform="translate(252.000000, 2.000000)">
                    <polygon id="Path" points="0.964912281 138.539777 0.964912281 13.2392185 28.5839599 0.211025839 28.5839599 138.539777"></polygon>
                    <path d="M159.110276,138.512116 L159.110276,87.9320746 C159.110276,70.8804695 155.681704,65.1327375 145.205514,65.1327375 C133.015038,65.1327375 129.586466,71.0720606 129.586466,87.1657103 L129.586466,138.512116 L101.967419,138.512116 L101.967419,87.9320746 C101.967419,70.8804695 98.5388471,65.1327375 88.0626566,65.1327375 C76.0626566,65.1327375 72.443609,71.0720606 72.443609,87.1657103 L72.443609,138.512116 L44.8245614,138.512116 L44.8245614,40.6090808 L72.443609,40.6090808 L72.443609,49.613861 C77.5864662,43.2913557 83.6817043,38.309988 94.7293233,38.309988 C107.87218,38.309988 115.110276,43.4829468 119.110276,51.9129538 C126.348371,41.9502183 137.776942,38.309988 149.586466,38.309988 C170.919799,38.309988 186.729323,46.739995 186.729323,77.969339 L186.729323,138.512116 L159.110276,138.512116 Z" id="Path"></path>
                    <path d="M210.909496,139.367716 C201.692286,139.367716 194.824561,132.651379 194.824561,123.575247 C194.824561,114.680639 201.692286,107.419733 210.909496,107.419733 C220.126706,107.419733 227.35589,114.680639 227.35589,123.575247 C227.35589,132.651379 220.126706,139.367716 210.909496,139.367716 Z" id="Path"></path>
                    <path d="M236.052632,138.985068 L236.052632,53.5253684 L263.671679,41.0820327 L263.671679,138.985068 L236.052632,138.985068 Z M236,26.9201287 L263.622807,13 L263.622807,40.62 L236,26.9201287 Z" id="Combined-Shape"></path>
                    <path d="M322.680085,141 C296.567797,141 280,121.940187 280,89.5962617 C280,57.8299065 296.567797,38 322.680085,38 C348.612288,38 365,57.8299065 365,89.5962617 C365,121.940187 348.612288,141 322.680085,141 Z M322.681319,114 C333.016484,114 339,104.968627 339,89.5960784 C339,74.2235294 333.016484,65 322.681319,65 C312.527473,65 306,74.2235294 306,89.5960784 C306,104.968627 312.527473,114 322.681319,114 Z" id="Combined-Shape"></path>
                </g>
            </g>
        </g>
    </g>
</svg>